<?xml version="1.0" encoding="UTF-8" standalone="no"?><!DOCTYPE svg PUBLIC "-//W3C//DTD SVG 1.1//EN" "http://www.w3.org/Graphics/SVG/1.1/DTD/svg11.dtd"><svg width="100%" height="100%" viewBox="0 0 651 616" version="1.1" xmlns="http://www.w3.org/2000/svg" xmlns:xlink="http://www.w3.org/1999/xlink" xml:space="preserve" xmlns:serif="http://www.serif.com/" style="fill-rule:evenodd;clip-rule:evenodd;stroke-linejoin:round;stroke-miterlimit:2;"><rect id="Artboard1" x="0" y="0" width="650.106" height="615.315" style="fill:none;"/><path d="M126.81,235.344l0,0.132c-7.818,21.998 -32.068,33.659 -54.066,25.841c-21.997,-7.819 -33.658,-31.936 -25.84,-54.066c14.312,-40.682 37.634,-78.714 69.968,-111.047c115.95,-115.951 303.856,-115.951 419.806,-0l23.19,23.322l-0,-46.645c-0,-23.455 18.95,-42.405 42.405,-42.405c23.455,0 42.404,18.95 42.404,42.405l0,148.416c0,23.455 -18.949,42.405 -42.404,42.405l-148.284,-0c-23.455,-0 -42.405,-18.95 -42.405,-42.405c0,-23.455 18.95,-42.404 42.405,-42.404l45.452,-0l-22.66,-22.793c-82.821,-82.822 -217.059,-82.822 -299.88,0c-23.323,23.19 -39.887,50.356 -50.091,79.244Zm-87.592,114.89c1.988,-0.663 3.976,-1.06 6.096,-1.325c2.12,-0.265 4.24,-0.398 6.361,-0.398l147.886,0c23.455,0 42.405,18.95 42.405,42.405c-0,23.455 -18.95,42.405 -42.405,42.405l-45.585,-0l22.792,22.792c82.822,82.822 217.059,82.822 299.881,0c23.322,-23.19 39.887,-50.355 50.09,-79.244c7.819,-21.997 32.069,-33.658 54.066,-25.84c21.998,7.818 33.659,31.936 25.841,54.066c-14.312,40.549 -37.767,78.581 -70.101,110.915c-115.817,115.817 -303.723,115.817 -419.673,-0l-23.323,-23.19l0,46.512c0,23.455 -18.949,42.405 -42.404,42.405c-23.456,-0 -42.405,-18.95 -42.405,-42.405l-0,-147.886c-0,-2.253 0.132,-4.506 0.53,-6.758c0.265,-1.723 0.663,-3.446 1.06,-5.036c1.855,-6.891 5.433,-13.251 10.734,-18.552c5.168,-5.3 11.529,-8.878 18.154,-10.866Z"/></svg>