<?xml version="1.0" encoding="UTF-8" standalone="no"?>
<!DOCTYPE svg PUBLIC "-//W3C//DTD SVG 1.1//EN" "http://www.w3.org/Graphics/SVG/1.1/DTD/svg11.dtd">
<svg width="100%" height="100%" viewBox="0 0 286 286" version="1.1" xmlns="http://www.w3.org/2000/svg" xmlns:xlink="http://www.w3.org/1999/xlink" xml:space="preserve" xmlns:serif="http://www.serif.com/" style="fill-rule:evenodd;clip-rule:evenodd;stroke-linejoin:round;stroke-miterlimit:2;">
    <rect id="Icon_Save" x="0.503" y="0.575" width="284.734" height="284.734" style="fill:none;"/>
    <g id="Icon_Save1" serif:id="Icon_Save">
        <path d="M182.756,61.985L182.849,61.985C183.865,61.985 184.84,61.581 185.559,60.863C186.277,60.144 186.681,59.169 186.681,58.152C186.681,55.972 188.449,54.204 190.629,54.204L196.048,54.204C198.535,54.204 200.92,55.192 202.678,56.95L228.221,82.492C230.389,84.661 231.608,87.603 231.608,90.67L231.608,215.925C231.608,220.103 229.948,224.111 226.993,227.065C224.039,230.02 220.031,231.68 215.853,231.68L208.229,231.68L208.229,227.701L201.96,227.701L201.96,146.93C201.96,144.727 200.174,142.942 197.971,142.942L88.523,142.942C86.32,142.942 84.534,144.727 84.534,146.93L84.534,227.701L77.511,227.701L77.511,231.68L69.887,231.68C65.709,231.68 61.701,230.02 58.746,227.065C55.792,224.111 54.132,220.103 54.132,215.925L54.132,69.959C54.132,65.781 55.792,61.773 58.746,58.818C61.701,55.864 65.709,54.204 69.887,54.204L72.78,54.204C73.861,54.204 74.898,54.633 75.663,55.398C76.427,56.163 76.857,57.2 76.857,58.281L76.857,58.704C76.857,60.516 78.326,61.985 80.137,61.985L82.304,61.985C82.638,61.985 82.959,62.118 83.195,62.354C83.431,62.59 83.564,62.911 83.564,63.245L83.564,66.188L98.993,66.188L98.993,63.245C98.993,62.911 99.125,62.59 99.362,62.354C99.598,62.118 99.918,61.985 100.252,61.985L105.227,61.985L105.227,107.288C105.227,109.727 107.204,111.704 109.643,111.704L178.341,111.704C180.779,111.704 182.756,109.727 182.756,107.288L182.756,61.985ZM173.173,72.489L173.173,99.641C173.173,100.57 172.803,101.461 172.146,102.118C171.489,102.775 170.598,103.145 169.669,103.145L153.526,103.145C152.596,103.145 151.705,102.775 151.048,102.118C150.391,101.461 150.022,100.57 150.022,99.641L150.022,72.489C150.022,71.56 150.391,70.668 151.048,70.011C151.705,69.354 152.596,68.985 153.526,68.985L169.669,68.985C170.598,68.985 171.489,69.354 172.146,70.011C172.803,70.668 173.173,71.56 173.173,72.489ZM100.58,227.389L100.58,157.252L186.913,157.252L186.913,227.389L100.58,227.389Z"/>
    </g>
</svg>
