<?xml version="1.0" encoding="UTF-8" standalone="no"?>
<!DOCTYPE svg PUBLIC "-//W3C//DTD SVG 1.1//EN" "http://www.w3.org/Graphics/SVG/1.1/DTD/svg11.dtd">
<svg width="100%" height="100%" viewBox="0 0 286 286" version="1.1" xmlns="http://www.w3.org/2000/svg" xmlns:xlink="http://www.w3.org/1999/xlink" xml:space="preserve" xmlns:serif="http://www.serif.com/" style="fill-rule:evenodd;clip-rule:evenodd;stroke-linejoin:round;stroke-miterlimit:2;">
    <rect id="Icon_Redo" x="0.42" y="0.575" width="284.734" height="284.734" style="fill:none;"/>
    <g id="Icon_Redo1" serif:id="Icon_Redo">
        <path d="M163.689,135.844L112.763,135.844C93.141,135.844 77.211,151.774 77.211,171.395C77.211,191.017 93.141,206.947 112.763,206.947L127.346,206.947L127.346,236.113L112.763,236.113C77.044,236.113 48.044,207.114 48.044,171.395C48.044,135.676 77.044,106.677 112.763,106.677L163.049,106.677L134.715,80.593L154.47,59.135L211.109,111.277C214.141,114.069 215.851,118.014 215.814,122.136C215.777,126.258 213.998,130.172 210.915,132.91L154.102,183.367L134.734,161.56L163.689,135.844Z"/>
    </g>
</svg>
