<?xml version="1.0" encoding="UTF-8" standalone="no"?>
<!DOCTYPE svg PUBLIC "-//W3C//DTD SVG 1.1//EN" "http://www.w3.org/Graphics/SVG/1.1/DTD/svg11.dtd">
<svg width="100%" height="100%" viewBox="0 0 286 286" version="1.1" xmlns="http://www.w3.org/2000/svg" xmlns:xlink="http://www.w3.org/1999/xlink" xml:space="preserve" xmlns:serif="http://www.serif.com/" style="fill-rule:evenodd;clip-rule:evenodd;stroke-linejoin:round;stroke-miterlimit:2;">
    <rect id="Icon_LivePlaying" x="0.325" y="0.575" width="284.734" height="284.734" style="fill:none;"/>
    <g id="Icon_LivePlaying1" serif:id="Icon_LivePlaying">
        <path d="M215.05,59.204L218.328,59.204C221.803,59.204 225.136,60.584 227.593,63.041C230.05,65.498 231.43,68.831 231.43,72.305L231.43,81.245C231.43,82.456 232.411,83.437 233.622,83.437L236.064,83.437L236.064,199.075L233.622,199.075C233.041,199.075 232.483,199.306 232.072,199.717C231.661,200.128 231.43,200.686 231.43,201.267L231.43,212.578C231.43,216.053 230.05,219.386 227.593,221.843C225.136,224.3 221.803,225.68 218.328,225.68L67.055,225.68C63.581,225.68 60.248,224.3 57.791,221.843C55.334,219.386 53.954,216.053 53.954,212.578L53.954,201.267C53.954,200.686 53.723,200.128 53.312,199.717C52.901,199.306 52.343,199.075 51.761,199.075L49.319,199.075L49.319,83.437L51.761,83.437C52.972,83.437 53.954,82.456 53.954,81.245L53.954,72.305C53.954,68.831 55.334,65.498 57.791,63.041C60.248,60.584 63.581,59.204 67.055,59.204L74.034,59.204L74.034,55.129C74.034,54.799 74.165,54.482 74.399,54.248C74.633,54.014 74.95,53.883 75.28,53.883L76.338,53.883C77.027,53.883 77.585,53.325 77.585,52.636L77.585,50.734C77.585,50.045 78.143,49.487 78.831,49.487L86.226,49.487C86.914,49.487 87.473,50.045 87.473,50.734L87.473,52.636C87.473,53.325 88.031,53.883 88.719,53.883L89.777,53.883C90.107,53.883 90.424,54.014 90.658,54.248C90.892,54.482 91.023,54.799 91.023,55.129L91.023,59.204L97.001,59.204L97.001,55.129C97.001,54.799 97.133,54.482 97.367,54.248C97.6,54.014 97.917,53.883 98.248,53.883L99.306,53.883C99.994,53.883 100.552,53.325 100.552,52.636L100.552,50.734C100.552,50.045 101.11,49.487 101.799,49.487L109.194,49.487C109.882,49.487 110.44,50.045 110.44,50.734L110.44,52.636C110.44,53.325 110.998,53.883 111.687,53.883L112.744,53.883C113.075,53.883 113.392,54.014 113.626,54.248C113.86,54.482 113.991,54.799 113.991,55.129L113.991,59.204L198.061,59.204L198.061,55.129C198.061,54.799 198.192,54.482 198.426,54.248C198.66,54.014 198.977,53.883 199.307,53.883L200.365,53.883C201.053,53.883 201.612,53.325 201.612,52.636L201.612,50.734C201.612,50.045 202.17,49.487 202.858,49.487L210.253,49.487C210.941,49.487 211.499,50.045 211.499,50.734L211.499,52.636C211.499,53.325 212.058,53.883 212.746,53.883L213.804,53.883C214.134,53.883 214.451,54.014 214.685,54.248C214.919,54.482 215.05,54.799 215.05,55.129L215.05,59.204ZM149.237,165.417L149.237,205.979C149.237,209.497 152.089,212.348 155.606,212.348L171.653,212.348C173.342,212.348 174.962,211.677 176.157,210.483C177.351,209.288 178.022,207.668 178.022,205.979L178.022,165.417L176.177,165.417C174.488,165.417 172.868,164.746 171.674,163.552C170.479,162.357 169.808,160.737 169.808,159.048L169.808,102.222C169.808,98.709 166.96,95.86 163.446,95.86C159.933,95.86 157.084,98.709 157.084,102.222L157.084,159.048C157.084,160.737 156.413,162.357 155.219,163.552C154.024,164.746 152.404,165.417 150.715,165.417L149.237,165.417ZM108.847,165.417L108.847,205.979C108.847,209.497 111.699,212.348 115.216,212.348L131.263,212.348C132.952,212.348 134.572,211.677 135.767,210.483C136.961,209.288 137.632,207.668 137.632,205.979L137.632,165.417L134.668,165.417C132.979,165.417 131.359,164.746 130.165,163.552C128.97,162.357 128.299,160.737 128.299,159.048L128.299,101.354C128.299,99.897 127.721,98.5 126.69,97.469C125.66,96.439 124.263,95.86 122.805,95.86L122.802,95.86C121.345,95.86 119.947,96.439 118.917,97.469C117.887,98.5 117.308,99.897 117.308,101.354L117.308,159.048C117.308,160.737 116.637,162.357 115.443,163.552C114.248,164.746 112.628,165.417 110.939,165.417L108.847,165.417ZM88.523,106.85C88.523,100.781 83.603,95.86 77.533,95.86L74.826,95.86C71.309,95.86 68.457,98.712 68.457,102.229L68.457,205.979C68.457,209.497 71.309,212.348 74.826,212.348L90.873,212.348C92.562,212.348 94.182,211.677 95.377,210.483C96.571,209.288 97.242,207.668 97.242,205.979L97.242,165.417L94.892,165.417C93.203,165.417 91.583,164.746 90.389,163.552C89.194,162.357 88.523,160.737 88.523,159.048L88.523,106.85ZM189.627,165.417L189.627,205.979C189.627,209.497 192.479,212.348 195.996,212.348L212.043,212.348C213.732,212.348 215.352,211.677 216.547,210.483C217.741,209.288 218.412,207.668 218.412,205.979L218.412,102.229C218.412,98.712 215.561,95.86 212.043,95.86L209.583,95.86C206.668,95.86 203.873,97.018 201.812,99.079C199.751,101.14 198.593,103.936 198.593,106.85L198.593,159.048C198.593,160.737 197.922,162.357 196.728,163.552C195.533,164.746 193.913,165.417 192.224,165.417L189.627,165.417Z"/>
    </g>
</svg>
