<?xml version="1.0" encoding="UTF-8" standalone="no"?>
<!DOCTYPE svg PUBLIC "-//W3C//DTD SVG 1.1//EN" "http://www.w3.org/Graphics/SVG/1.1/DTD/svg11.dtd">
<svg width="100%" height="100%" viewBox="0 0 286 285" version="1.1" xmlns="http://www.w3.org/2000/svg" xmlns:xlink="http://www.w3.org/1999/xlink" xml:space="preserve" xmlns:serif="http://www.serif.com/" style="fill-rule:evenodd;clip-rule:evenodd;stroke-linejoin:round;stroke-miterlimit:2;">
    <rect id="Icon_Seq_Sweep" x="0.967" y="0.137" width="284.734" height="284.734" style="fill:none;"/>
    <g id="Icon_Seq_Sweep1" serif:id="Icon_Seq_Sweep">
        <path d="M230.071,75.43L230.071,221.359C230.071,228.966 223.905,235.133 216.298,235.133L70.369,235.133C62.762,235.133 56.595,228.966 56.595,221.359L56.595,75.43C56.595,67.823 62.762,61.657 70.369,61.657L216.298,61.657C223.905,61.657 230.071,67.823 230.071,75.43ZM212.219,84.445C212.219,81.82 210.091,79.691 207.466,79.691L179.959,79.691C177.334,79.691 175.206,81.82 175.206,84.445L175.206,111.951C175.206,114.576 177.334,116.704 179.959,116.704L207.466,116.704C210.091,116.704 212.219,114.576 212.219,111.951L212.219,84.445ZM161.84,84.445C161.84,81.82 159.712,79.691 157.087,79.691L129.58,79.691C126.955,79.691 124.827,81.82 124.827,84.445L124.827,111.951C124.827,114.576 126.955,116.704 129.58,116.704L157.087,116.704C159.712,116.704 161.84,114.576 161.84,111.951L161.84,84.445ZM161.84,134.75C161.84,132.125 159.712,129.997 157.087,129.997L129.58,129.997C126.955,129.997 124.827,132.125 124.827,134.75L124.827,162.257C124.827,164.882 126.955,167.01 129.58,167.01L157.087,167.01C159.712,167.01 161.84,164.882 161.84,162.257L161.84,134.75ZM111.46,84.445C111.46,81.82 109.332,79.691 106.707,79.691L79.201,79.691C76.576,79.691 74.448,81.82 74.448,84.445L74.448,111.951C74.448,114.576 76.576,116.704 79.201,116.704L106.707,116.704C109.332,116.704 111.46,114.576 111.46,111.951L111.46,84.445ZM212.219,185.056C212.219,182.431 210.091,180.303 207.466,180.303L179.959,180.303C177.334,180.303 175.206,182.431 175.206,185.056L175.206,212.562C175.206,215.187 177.334,217.315 179.959,217.315L207.466,217.315C210.091,217.315 212.219,215.187 212.219,212.562L212.219,185.056ZM212.219,134.75C212.219,132.125 210.091,129.997 207.466,129.997L179.959,129.997C177.334,129.997 175.206,132.125 175.206,134.75L175.206,162.257C175.206,164.882 177.334,167.01 179.959,167.01L207.466,167.01C210.091,167.01 212.219,164.882 212.219,162.257L212.219,134.75ZM111.46,185.056C111.46,182.431 109.332,180.303 106.707,180.303L79.201,180.303C76.576,180.303 74.448,182.431 74.448,185.056L74.448,212.562C74.448,215.187 76.576,217.315 79.201,217.315L106.707,217.315C109.332,217.315 111.46,215.187 111.46,212.562L111.46,185.056ZM161.84,185.056C161.84,182.431 159.712,180.303 157.087,180.303L129.58,180.303C126.955,180.303 124.827,182.431 124.827,185.056L124.827,212.562C124.827,215.187 126.955,217.315 129.58,217.315L157.087,217.315C159.712,217.315 161.84,215.187 161.84,212.562L161.84,185.056ZM111.46,134.75C111.46,132.125 109.332,129.997 106.707,129.997L79.201,129.997C76.576,129.997 74.448,132.125 74.448,134.75L74.448,162.257C74.448,164.882 76.576,167.01 79.201,167.01L106.707,167.01C109.332,167.01 111.46,164.882 111.46,162.257L111.46,134.75Z"/>
    </g>
</svg>
