<?xml version="1.0" encoding="UTF-8" standalone="no"?>
<!DOCTYPE svg PUBLIC "-//W3C//DTD SVG 1.1//EN" "http://www.w3.org/Graphics/SVG/1.1/DTD/svg11.dtd">
<svg width="100%" height="100%" viewBox="0 0 286 286" version="1.1" xmlns="http://www.w3.org/2000/svg" xmlns:xlink="http://www.w3.org/1999/xlink" xml:space="preserve" xmlns:serif="http://www.serif.com/" style="fill-rule:evenodd;clip-rule:evenodd;stroke-linejoin:round;stroke-miterlimit:2;">
    <rect id="Icon_Presets" x="0.681" y="0.575" width="284.734" height="284.734" style="fill:none;"/>
    <g id="Icon_Presets1" serif:id="Icon_Presets">
        <path d="M261.858,36.473L261.858,246.145C261.858,253.863 255.601,260.119 247.884,260.119L38.212,260.119C30.494,260.119 24.238,253.863 24.238,246.145L24.238,36.473C24.238,28.755 30.494,22.499 38.212,22.499L247.884,22.499C255.601,22.499 261.858,28.755 261.858,36.473ZM138.58,69.635L52.986,69.635L52.986,82.222L138.537,82.222C141.245,91.765 150.029,98.764 160.436,98.764C172.997,98.764 183.195,88.565 183.195,76.004C183.195,63.442 172.997,53.244 160.436,53.244C150.084,53.244 141.338,60.169 138.58,69.635ZM238.386,135.619L138.849,135.619L138.849,148.205L238.386,148.205L238.386,135.619ZM238.386,69.635L198.26,69.635L198.26,82.222L238.386,82.222L238.386,69.635ZM158.58,201.603L52.986,201.603L52.986,214.189L158.688,214.189C161.482,223.598 170.2,230.469 180.51,230.469C193.072,230.469 203.27,220.27 203.27,207.709C203.27,195.147 193.072,184.949 180.51,184.949C170.064,184.949 161.251,192.002 158.58,201.603ZM238.386,201.603L218.256,201.603L218.256,214.189L238.386,214.189L238.386,201.603ZM78.874,135.619L52.986,135.619L52.986,148.205L79.221,148.205C82.145,157.4 90.758,164.069 100.916,164.069C113.477,164.069 123.676,153.871 123.676,141.309C123.676,128.748 113.477,118.549 100.916,118.549C90.319,118.549 81.404,125.807 78.874,135.619Z"/>
    </g>
</svg>
