<?xml version="1.0" encoding="UTF-8" standalone="no"?>
<!DOCTYPE svg PUBLIC "-//W3C//DTD SVG 1.1//EN" "http://www.w3.org/Graphics/SVG/1.1/DTD/svg11.dtd">
<svg width="100%" height="100%" viewBox="0 0 286 286" version="1.1" xmlns="http://www.w3.org/2000/svg" xmlns:xlink="http://www.w3.org/1999/xlink" xml:space="preserve" xmlns:serif="http://www.serif.com/" style="fill-rule:evenodd;clip-rule:evenodd;stroke-linejoin:round;stroke-miterlimit:2;">
    <rect id="Icon_Platform_Mobile" x="0.411" y="0.575" width="284.734" height="284.734" style="fill:none;"/>
    <g id="Icon_Platform_Mobile1" serif:id="Icon_Platform_Mobile">
        <path d="M94.073,87.449L186.444,87.449C187.272,87.449 187.943,88.12 187.943,88.948L187.943,102.763C187.943,103.592 187.272,104.263 186.444,104.263L186.351,104.263L186.351,198.757L94.335,198.757L94.335,133.377L94.073,133.377C93.245,133.377 92.573,132.705 92.573,131.877L92.573,118.062C92.573,117.234 93.245,116.562 94.073,116.562L94.335,116.562L94.335,111.645L94.073,111.645C93.245,111.645 92.573,110.974 92.573,110.146L92.573,88.948C92.573,88.12 93.245,87.449 94.073,87.449ZM94.335,77.26L94.335,67.602C94.335,64.831 95.436,62.173 97.396,60.213C99.356,58.253 102.013,57.152 104.785,57.152L175.901,57.152C178.673,57.152 181.331,58.253 183.29,60.213C185.25,62.173 186.351,64.831 186.351,67.602L186.351,77.26L94.335,77.26ZM152.183,67.306C152.183,64.887 150.222,62.925 147.803,62.925L120.883,62.925C118.464,62.925 116.503,64.887 116.503,67.306C116.503,69.725 118.464,71.686 120.883,71.686L147.803,71.686C150.222,71.686 152.183,69.725 152.183,67.306ZM162.154,62.967C159.715,62.967 157.735,64.947 157.735,67.386C157.735,69.825 159.715,71.806 162.154,71.806C164.594,71.806 166.574,69.825 166.574,67.386C166.574,64.947 164.594,62.967 162.154,62.967ZM186.351,209.308L186.351,218.282C186.351,221.053 185.25,223.711 183.29,225.671C181.331,227.631 178.673,228.731 175.901,228.731L104.785,228.731C102.013,228.731 99.356,227.631 97.396,225.671C95.436,223.711 94.335,221.053 94.335,218.282L94.335,209.308L186.351,209.308ZM167.971,218.159C167.971,217.169 167.578,216.22 166.878,215.52C166.178,214.82 165.229,214.427 164.239,214.427L116.278,214.427C115.288,214.427 114.339,214.82 113.639,215.52C112.939,216.22 112.546,217.169 112.546,218.159L112.546,218.161C112.546,219.151 112.939,220.101 113.639,220.8C114.339,221.5 115.288,221.893 116.278,221.893L164.239,221.893C165.229,221.893 166.178,221.5 166.878,220.8C167.578,220.101 167.971,219.151 167.971,218.161L167.971,218.159Z"/>
    </g>
</svg>
