<?xml version="1.0" encoding="UTF-8" standalone="no"?>
<!DOCTYPE svg PUBLIC "-//W3C//DTD SVG 1.1//EN" "http://www.w3.org/Graphics/SVG/1.1/DTD/svg11.dtd">
<svg width="100%" height="100%" viewBox="0 0 285 285" version="1.1" xmlns="http://www.w3.org/2000/svg" xmlns:xlink="http://www.w3.org/1999/xlink" xml:space="preserve" xmlns:serif="http://www.serif.com/" style="fill-rule:evenodd;clip-rule:evenodd;stroke-linejoin:round;stroke-miterlimit:2;">
    <rect id="Icon_Seq" x="0.141" y="0.24" width="284.734" height="284.734" style="fill:none;"/>
    <g id="Icon_Seq1" serif:id="Icon_Seq">
        <path d="M108.318,60.469L108.318,100.033C108.318,102.02 107.528,103.925 106.123,105.33C104.719,106.735 102.813,107.525 100.826,107.525L61.262,107.525C59.275,107.525 57.369,106.735 55.964,105.33C54.559,103.925 53.77,102.02 53.77,100.033L53.77,60.469C53.77,58.482 54.559,56.576 55.964,55.171C57.369,53.766 59.275,52.977 61.262,52.977L100.826,52.977C102.813,52.977 104.719,53.766 106.123,55.171C107.528,56.576 108.318,58.482 108.318,60.469ZM169.782,60.469L169.782,100.033C169.782,102.02 168.993,103.925 167.588,105.33C166.183,106.735 164.277,107.525 162.29,107.525L122.726,107.525C120.739,107.525 118.834,106.735 117.429,105.33C116.024,103.925 115.234,102.02 115.234,100.033L115.234,60.469C115.234,58.482 116.024,56.576 117.429,55.171C118.834,53.766 120.739,52.977 122.726,52.977L162.29,52.977C164.277,52.977 166.183,53.766 167.588,55.171C168.993,56.576 169.782,58.482 169.782,60.469ZM157.272,70.47C157.272,69.149 156.747,67.881 155.812,66.947C154.878,66.012 153.61,65.487 152.289,65.487L132.727,65.487C131.406,65.487 130.138,66.012 129.204,66.947C128.269,67.881 127.744,69.149 127.744,70.47L127.744,90.032C127.744,91.353 128.269,92.621 129.204,93.555C130.138,94.49 131.406,95.015 132.727,95.015L152.289,95.015C153.61,95.015 154.878,94.49 155.812,93.555C156.747,92.621 157.272,91.353 157.272,90.032L157.272,70.47ZM169.782,122.824L169.782,162.388C169.782,164.375 168.993,166.281 167.588,167.686C166.183,169.091 164.277,169.88 162.29,169.88L122.726,169.88C120.739,169.88 118.834,169.091 117.429,167.686C116.024,166.281 115.234,164.375 115.234,162.388L115.234,122.824C115.234,120.837 116.024,118.932 117.429,117.527C118.834,116.122 120.739,115.332 122.726,115.332L162.29,115.332C164.277,115.332 166.183,116.122 167.588,117.527C168.993,118.932 169.782,120.837 169.782,122.824ZM157.272,132.826C157.272,131.504 156.747,130.237 155.812,129.302C154.878,128.368 153.61,127.843 152.289,127.843L132.727,127.843C131.406,127.843 130.138,128.368 129.204,129.302C128.269,130.237 127.744,131.504 127.744,132.826L127.744,152.387C127.744,153.709 128.269,154.976 129.204,155.911C130.138,156.845 131.406,157.37 132.727,157.37L152.289,157.37C153.61,157.37 154.878,156.845 155.812,155.911C156.747,154.976 157.272,153.709 157.272,152.387L157.272,132.826ZM231.246,60.469L231.246,100.033C231.246,102.02 230.457,103.925 229.052,105.33C227.647,106.735 225.741,107.525 223.755,107.525L184.19,107.525C182.203,107.525 180.298,106.735 178.893,105.33C177.488,103.925 176.699,102.02 176.699,100.033L176.699,60.469C176.699,58.482 177.488,56.576 178.893,55.171C180.298,53.766 182.203,52.977 184.19,52.977L223.755,52.977C225.741,52.977 227.647,53.766 229.052,55.171C230.457,56.576 231.246,58.482 231.246,60.469ZM218.736,70.47C218.736,69.149 218.211,67.881 217.277,66.947C216.342,66.012 215.075,65.487 213.753,65.487L194.192,65.487C192.87,65.487 191.603,66.012 190.668,66.947C189.734,67.881 189.209,69.149 189.209,70.47L189.209,90.032C189.209,91.353 189.734,92.621 190.668,93.555C191.603,94.49 192.87,95.015 194.192,95.015L213.753,95.015C215.075,95.015 216.342,94.49 217.277,93.555C218.211,92.621 218.736,91.353 218.736,90.032L218.736,70.47ZM231.246,185.18L231.246,224.744C231.246,226.731 230.457,228.636 229.052,230.041C227.647,231.446 225.741,232.236 223.755,232.236L184.19,232.236C182.203,232.236 180.298,231.446 178.893,230.041C177.488,228.636 176.699,226.731 176.699,224.744L176.699,185.18C176.699,183.193 177.488,181.287 178.893,179.882C180.298,178.477 182.203,177.688 184.19,177.688L223.755,177.688C225.741,177.688 227.647,178.477 229.052,179.882C230.457,181.287 231.246,183.193 231.246,185.18ZM218.736,195.181C218.736,193.859 218.211,192.592 217.277,191.657C216.342,190.723 215.075,190.198 213.753,190.198L194.192,190.198C192.87,190.198 191.603,190.723 190.668,191.657C189.734,192.592 189.209,193.859 189.209,195.181L189.209,214.742C189.209,216.064 189.734,217.331 190.668,218.266C191.603,219.2 192.87,219.725 194.192,219.725L213.753,219.725C215.075,219.725 216.342,219.2 217.277,218.266C218.211,217.331 218.736,216.064 218.736,214.742L218.736,195.181ZM108.318,122.824L108.318,162.388C108.318,164.375 107.528,166.281 106.123,167.686C104.719,169.091 102.813,169.88 100.826,169.88L61.262,169.88C59.275,169.88 57.369,169.091 55.964,167.686C54.559,166.281 53.77,164.375 53.77,162.388L53.77,122.824C53.77,120.837 54.559,118.932 55.964,117.527C57.369,116.122 59.275,115.332 61.262,115.332L100.826,115.332C102.813,115.332 104.719,116.122 106.123,117.527C107.528,118.932 108.318,120.837 108.318,122.824ZM231.246,122.824L231.246,162.388C231.246,164.375 230.457,166.281 229.052,167.686C227.647,169.091 225.741,169.88 223.755,169.88L184.19,169.88C182.203,169.88 180.298,169.091 178.893,167.686C177.488,166.281 176.699,164.375 176.699,162.388L176.699,122.824C176.699,120.837 177.488,118.932 178.893,117.527C180.298,116.122 182.203,115.332 184.19,115.332L223.755,115.332C225.741,115.332 227.647,116.122 229.052,117.527C230.457,118.932 231.246,120.837 231.246,122.824ZM108.318,185.18L108.318,224.744C108.318,226.731 107.528,228.636 106.123,230.041C104.719,231.446 102.813,232.236 100.826,232.236L61.262,232.236C59.275,232.236 57.369,231.446 55.964,230.041C54.559,228.636 53.77,226.731 53.77,224.744L53.77,185.18C53.77,183.193 54.559,181.287 55.964,179.882C57.369,178.477 59.275,177.688 61.262,177.688L100.826,177.688C102.813,177.688 104.719,178.477 106.123,179.882C107.528,181.287 108.318,183.193 108.318,185.18ZM95.808,195.181C95.808,193.859 95.283,192.592 94.348,191.657C93.414,190.723 92.146,190.198 90.825,190.198L71.263,190.198C69.942,190.198 68.674,190.723 67.74,191.657C66.805,192.592 66.28,193.859 66.28,195.181L66.28,214.742C66.28,216.064 66.805,217.331 67.74,218.266C68.674,219.2 69.942,219.725 71.263,219.725L90.825,219.725C92.146,219.725 93.414,219.2 94.348,218.266C95.283,217.331 95.808,216.064 95.808,214.742L95.808,195.181ZM169.782,185.18L169.782,224.744C169.782,226.731 168.993,228.636 167.588,230.041C166.183,231.446 164.277,232.236 162.29,232.236L122.726,232.236C120.739,232.236 118.834,231.446 117.429,230.041C116.024,228.636 115.234,226.731 115.234,224.744L115.234,185.18C115.234,183.193 116.024,181.287 117.429,179.882C118.834,178.477 120.739,177.688 122.726,177.688L162.29,177.688C164.277,177.688 166.183,178.477 167.588,179.882C168.993,181.287 169.782,183.193 169.782,185.18Z"/>
    </g>
</svg>
