<?xml version="1.0" encoding="UTF-8" standalone="no"?>
<!DOCTYPE svg PUBLIC "-//W3C//DTD SVG 1.1//EN" "http://www.w3.org/Graphics/SVG/1.1/DTD/svg11.dtd">
<svg width="100%" height="100%" viewBox="0 0 286 286" version="1.1" xmlns="http://www.w3.org/2000/svg" xmlns:xlink="http://www.w3.org/1999/xlink" xml:space="preserve" xmlns:serif="http://www.serif.com/" style="fill-rule:evenodd;clip-rule:evenodd;stroke-linejoin:round;stroke-miterlimit:2;">
    <rect id="Icon_Presets" x="0.681" y="0.575" width="284.734" height="284.734" style="fill:none;"/>
    <g id="Icon_Presets1" serif:id="Icon_Presets">
        <path d="M72.952,82.845C72.952,74.222 79.954,67.22 88.577,67.22C97.201,67.22 104.202,74.222 104.202,82.845L104.202,195.117C104.202,203.741 97.201,210.742 88.577,210.742C79.954,210.742 72.952,203.741 72.952,195.117L72.952,82.845ZM123.622,82.845C123.622,74.222 130.623,67.22 139.247,67.22C147.871,67.22 154.872,74.222 154.872,82.845L154.872,195.117C154.872,203.741 147.871,210.742 139.247,210.742C130.623,210.742 123.622,203.741 123.622,195.117L123.622,82.845ZM162.316,91.265C159.876,82.993 164.611,74.297 172.882,71.858C181.154,69.418 189.85,74.152 192.289,82.424L224.052,190.109C226.492,198.38 221.757,207.076 213.486,209.516C205.214,211.956 196.518,207.221 194.079,198.95L162.316,91.265Z"/>
    </g>
</svg>
