<?xml version="1.0" encoding="UTF-8" standalone="no"?>
<!DOCTYPE svg PUBLIC "-//W3C//DTD SVG 1.1//EN" "http://www.w3.org/Graphics/SVG/1.1/DTD/svg11.dtd">
<svg width="100%" height="100%" viewBox="0 0 286 286" version="1.1" xmlns="http://www.w3.org/2000/svg" xmlns:xlink="http://www.w3.org/1999/xlink" xml:space="preserve" xmlns:serif="http://www.serif.com/" style="fill-rule:evenodd;clip-rule:evenodd;stroke-linejoin:round;stroke-miterlimit:2;">
    <rect id="Icon_Share" x="0.857" y="0.575" width="284.734" height="284.734" style="fill:none;"/>
    <g id="Icon_Share1" serif:id="Icon_Share">
        <path d="M125.038,161.159C122.053,159.45 118.396,159.413 115.378,161.062C107.638,165.301 97.726,164.197 91.095,157.707C82.965,149.75 82.825,136.688 90.782,128.558C97.426,121.771 107.626,120.552 115.544,124.965C118.571,126.656 122.262,126.636 125.271,124.914C128.661,122.991 132.976,120.52 136.353,118.586C139.346,116.871 141.23,113.722 141.325,110.275C141.354,108.685 141.582,107.076 142.012,105.474C144.956,94.485 156.268,87.954 167.256,90.898C178.245,93.843 184.776,105.155 181.832,116.143C178.887,127.132 167.575,133.663 156.587,130.719C154.937,130.277 153.387,129.646 151.955,128.856C148.937,127.195 145.272,127.226 142.282,128.938C138.598,131.031 133.807,133.774 130.308,135.778C127.677,137.285 126.046,140.078 126.027,143.109C126.118,143.602 126.097,144.094 126.059,144.585C125.89,146.545 126.875,148.425 128.582,149.403C132.088,151.466 138.025,154.866 142.365,157.351C145.349,159.06 149.006,159.096 152.024,157.448C153.087,156.747 154.272,156.231 155.522,155.822C166.336,152.29 177.983,158.202 181.515,169.016C185.047,179.83 179.135,191.478 168.321,195.01C157.507,198.542 145.86,192.63 142.328,181.816C141.695,179.879 141.365,177.915 141.313,175.975C141.225,172.525 139.343,169.371 136.348,167.656C132.909,165.667 128.479,163.129 125.038,161.159ZM165.803,100.267C165.803,101.965 167.181,103.342 168.878,103.342C170.575,103.342 171.953,101.965 171.953,100.267C171.953,98.57 170.575,97.192 168.878,97.192C167.181,97.192 165.803,98.57 165.803,100.267ZM108.879,132.904C108.879,134.601 110.257,135.979 111.954,135.979C113.651,135.979 115.029,134.601 115.029,132.904C115.029,131.207 113.651,129.829 111.954,129.829C110.257,129.829 108.879,131.207 108.879,132.904ZM164.553,165.464C164.553,167.161 165.931,168.539 167.628,168.539C169.326,168.539 170.703,167.161 170.703,165.464C170.703,163.767 169.326,162.389 167.628,162.389C165.931,162.389 164.553,163.767 164.553,165.464Z"/>
    </g>
</svg>
