<?xml version="1.0" encoding="UTF-8" standalone="no"?>
<!DOCTYPE svg PUBLIC "-//W3C//DTD SVG 1.1//EN" "http://www.w3.org/Graphics/SVG/1.1/DTD/svg11.dtd">
<svg width="100%" height="100%" viewBox="0 0 286 286" version="1.1" xmlns="http://www.w3.org/2000/svg" xmlns:xlink="http://www.w3.org/1999/xlink" xml:space="preserve" xmlns:serif="http://www.serif.com/" style="fill-rule:evenodd;clip-rule:evenodd;stroke-linejoin:round;stroke-miterlimit:2;">
    <rect id="Icon_Presets" x="0.681" y="0.575" width="284.734" height="284.734" style="fill:none;"/>
    <g id="Icon_Presets1" serif:id="Icon_Presets">
        <circle cx="168.788" cy="83.429" r="20.602" style="fill:white;"/>
        <circle cx="98.788" cy="134.634" r="20.602" style="fill:white;"/>
        <circle cx="178.788" cy="185.839" r="20.602" style="fill:white;"/>
        <path d="M128.793,88.412L52.753,88.412L52.753,78.446L128.793,78.446C131.024,69.48 139.135,62.827 148.788,62.827C160.158,62.827 169.39,72.058 169.39,83.429C169.39,94.8 160.158,104.032 148.788,104.032C139.135,104.032 131.024,97.379 128.793,88.412ZM148.788,73.243C143.166,73.243 138.602,77.808 138.602,83.429C138.602,89.051 143.166,93.615 148.788,93.615C154.409,93.615 158.973,89.051 158.973,83.429C158.973,77.808 154.409,73.243 148.788,73.243ZM78.793,139.617L52.753,139.617L52.753,129.651L78.793,129.651C81.024,120.684 89.135,114.032 98.788,114.032C110.158,114.032 119.39,123.263 119.39,134.634C119.39,146.005 110.158,155.236 98.788,155.236C89.135,155.236 81.024,148.584 78.793,139.617ZM98.788,124.448C93.166,124.448 88.602,129.012 88.602,134.634C88.602,140.256 93.166,144.82 98.788,144.82C104.409,144.82 108.973,140.256 108.973,134.634C108.973,129.012 104.409,124.448 98.788,124.448ZM148.793,190.822L52.753,190.822L52.753,180.856L148.793,180.856C151.024,171.889 159.135,165.236 168.788,165.236C180.158,165.236 189.39,174.468 189.39,185.839C189.39,197.209 180.158,206.441 168.788,206.441C159.135,206.441 151.024,199.788 148.793,190.822ZM168.788,175.653C163.166,175.653 158.602,180.217 158.602,185.839C158.602,191.46 163.166,196.024 168.788,196.024C174.409,196.024 178.973,191.46 178.973,185.839C178.973,180.217 174.409,175.653 168.788,175.653ZM224.432,78.446L224.432,88.412L180.22,88.412L180.22,78.446L224.432,78.446ZM224.432,129.651L224.432,139.617L129.22,139.617L129.22,129.651L224.432,129.651ZM224.432,180.856L224.432,190.822L199.22,190.822L199.22,180.856L224.432,180.856Z"/>
    </g>
</svg>
