<?xml version="1.0" encoding="UTF-8" standalone="no"?>
<!DOCTYPE svg PUBLIC "-//W3C//DTD SVG 1.1//EN" "http://www.w3.org/Graphics/SVG/1.1/DTD/svg11.dtd">
<svg width="100%" height="100%" viewBox="0 0 285 286" version="1.1" xmlns="http://www.w3.org/2000/svg" xmlns:xlink="http://www.w3.org/1999/xlink" xml:space="preserve" xmlns:serif="http://www.serif.com/" style="fill-rule:evenodd;clip-rule:evenodd;stroke-linejoin:round;stroke-miterlimit:2;">
    <rect id="Icon_Panic" x="0.04" y="0.575" width="284.734" height="284.734" style="fill:none;"/>
    <g id="Icon_Panic1" serif:id="Icon_Panic">
        <path d="M142.406,56.944C189.87,56.944 228.405,95.478 228.405,142.942C228.405,190.406 189.87,228.94 142.406,228.94C94.943,228.94 56.408,190.406 56.408,142.942C56.408,95.478 94.943,56.944 142.406,56.944ZM127.547,95.645L127.547,113.415C127.547,113.975 127.581,114.536 127.649,115.092L132.698,156.408C132.956,158.514 134.745,160.098 136.867,160.098L147.82,160.098C149.938,160.098 151.724,158.521 151.987,156.42L157.158,115.112C157.23,114.542 157.266,113.969 157.266,113.394L157.266,95.645C157.266,94.53 156.822,93.46 156.033,92.671C155.244,91.882 154.174,91.438 153.059,91.438L131.754,91.438C130.639,91.438 129.568,91.882 128.78,92.671C127.991,93.46 127.547,94.53 127.547,95.645ZM128.572,172.465L128.572,188.349C128.572,189.495 129.027,190.594 129.838,191.405C130.648,192.215 131.747,192.67 132.893,192.67L151.988,192.67C153.134,192.67 154.233,192.215 155.044,191.405C155.854,190.594 156.309,189.495 156.309,188.349L156.309,172.465C156.309,171.319 155.854,170.22 155.044,169.41C154.233,168.599 153.134,168.144 151.988,168.144L132.893,168.144C131.747,168.144 130.648,168.599 129.838,169.41C129.027,170.22 128.572,171.319 128.572,172.465Z"/>
    </g>
</svg>
