<?xml version="1.0" encoding="UTF-8" standalone="no"?>
<!DOCTYPE svg PUBLIC "-//W3C//DTD SVG 1.1//EN" "http://www.w3.org/Graphics/SVG/1.1/DTD/svg11.dtd">
<svg width="100%" height="100%" viewBox="0 0 286 286" version="1.1" xmlns="http://www.w3.org/2000/svg" xmlns:xlink="http://www.w3.org/1999/xlink" xml:space="preserve" xmlns:serif="http://www.serif.com/" style="fill-rule:evenodd;clip-rule:evenodd;stroke-linejoin:round;stroke-miterlimit:2;">
    <rect id="Icon_LivePlaying" x="0.325" y="0.575" width="284.734" height="284.734" style="fill:none;"/>
    <g id="Icon_LivePlaying1" serif:id="Icon_LivePlaying">
        <path d="M215.05,80.204L218.328,80.204C221.803,80.204 225.136,81.584 227.593,84.041C230.05,86.498 231.43,89.831 231.43,93.305L231.43,103.245C231.43,104.456 232.411,105.437 233.622,105.437L236.064,105.437L236.064,199.075L233.622,199.075C233.041,199.075 232.483,199.306 232.072,199.717C231.661,200.128 231.43,200.686 231.43,201.267L231.43,212.578C231.43,216.053 230.05,219.386 227.593,221.843C225.136,224.3 221.803,225.68 218.328,225.68L67.055,225.68C63.581,225.68 60.248,224.3 57.791,221.843C55.334,219.386 53.954,216.053 53.954,212.578L53.954,201.267C53.954,200.686 53.723,200.128 53.312,199.717C52.901,199.306 52.343,199.075 51.761,199.075L49.319,199.075L49.319,105.437L51.761,105.437C52.972,105.437 53.954,104.456 53.954,103.245L53.954,93.305C53.954,89.831 55.334,86.498 57.791,84.041C60.248,81.584 63.581,80.204 67.055,80.204L74.034,80.204L74.034,76.129C74.034,75.799 74.165,75.482 74.399,75.248C74.633,75.014 74.95,74.883 75.28,74.883L76.338,74.883C77.027,74.883 77.585,74.325 77.585,73.636L77.585,71.734C77.585,71.045 78.143,70.487 78.831,70.487L86.226,70.487C86.914,70.487 87.473,71.045 87.473,71.734L87.473,73.636C87.473,74.325 88.031,74.883 88.719,74.883L89.777,74.883C90.107,74.883 90.424,75.014 90.658,75.248C90.892,75.482 91.023,75.799 91.023,76.129L91.023,80.204L97.001,80.204L97.001,76.129C97.001,75.799 97.133,75.482 97.367,75.248C97.6,75.014 97.917,74.883 98.248,74.883L99.306,74.883C99.994,74.883 100.552,74.325 100.552,73.636L100.552,71.734C100.552,71.045 101.11,70.487 101.799,70.487L109.194,70.487C109.882,70.487 110.44,71.045 110.44,71.734L110.44,73.636C110.44,74.325 110.998,74.883 111.687,74.883L112.744,74.883C113.075,74.883 113.392,75.014 113.626,75.248C113.86,75.482 113.991,75.799 113.991,76.129L113.991,80.204L198.061,80.204L198.061,76.129C198.061,75.799 198.192,75.482 198.426,75.248C198.66,75.014 198.977,74.883 199.307,74.883L200.365,74.883C201.053,74.883 201.612,74.325 201.612,73.636L201.612,71.734C201.612,71.045 202.17,70.487 202.858,70.487L210.253,70.487C210.941,70.487 211.499,71.045 211.499,71.734L211.499,73.636C211.499,74.325 212.058,74.883 212.746,74.883L213.804,74.883C214.134,74.883 214.451,75.014 214.685,75.248C214.919,75.482 215.05,75.799 215.05,76.129L215.05,80.204ZM147.237,165.417L147.237,205.979C147.237,209.497 150.089,212.348 153.606,212.348L173.653,212.348C175.342,212.348 176.962,211.677 178.157,210.483C179.351,209.288 180.022,207.668 180.022,205.979L180.022,165.417L178.177,165.417C176.488,165.417 174.868,164.746 173.674,163.552C172.479,162.357 171.808,160.737 171.808,159.048L171.808,102.222C171.808,98.709 166.96,95.86 163.446,95.86C159.933,95.86 155.084,98.709 155.084,102.222L155.084,159.048C155.084,160.737 154.413,162.357 153.219,163.552C152.024,164.746 150.404,165.417 148.715,165.417L147.237,165.417ZM106.847,165.417L106.847,205.979C106.847,209.497 109.699,212.348 113.216,212.348L132.263,212.348C133.952,212.348 135.572,211.677 136.767,210.483C137.961,209.288 138.632,207.668 138.632,205.979L138.632,165.417L135.668,165.417C133.979,165.417 132.359,164.746 131.165,163.552C129.97,162.357 129.299,160.737 129.299,159.048L129.299,101.354C129.299,99.897 128.721,98.5 127.69,97.469C126.66,96.439 125.263,95.86 123.805,95.86L120.802,95.86C119.345,95.86 117.947,96.439 116.917,97.469C115.887,98.5 115.308,99.897 115.308,101.354L115.308,159.048C115.308,160.737 114.637,162.357 113.443,163.552C112.248,164.746 110.628,165.417 108.939,165.417L106.847,165.417ZM90.523,106.85C90.523,100.781 85.603,95.86 79.533,95.86L74.826,95.86C71.309,95.86 68.457,98.712 68.457,102.229L68.457,205.979C68.457,209.497 71.309,212.348 74.826,212.348L92.873,212.348C94.562,212.348 96.182,211.677 97.377,210.483C98.571,209.288 99.242,207.668 99.242,205.979L99.242,165.417L96.892,165.417C95.203,165.417 93.583,164.746 92.389,163.552C91.194,162.357 90.523,160.737 90.523,159.048L90.523,106.85ZM187.627,165.417L187.627,205.979C187.627,209.497 190.479,212.348 193.996,212.348L212.043,212.348C213.732,212.348 215.352,211.677 216.547,210.483C217.741,209.288 218.412,207.668 218.412,205.979L218.412,102.229C218.412,98.712 215.561,95.86 212.043,95.86L207.583,95.86C204.668,95.86 201.873,97.018 199.812,99.079C197.751,101.14 196.593,103.936 196.593,106.85L196.593,159.048C196.593,160.737 195.922,162.357 194.728,163.552C193.533,164.746 191.913,165.417 190.224,165.417L187.627,165.417Z"/>
    </g>
</svg>
