<?xml version="1.0" encoding="UTF-8" standalone="no"?>
<!DOCTYPE svg PUBLIC "-//W3C//DTD SVG 1.1//EN" "http://www.w3.org/Graphics/SVG/1.1/DTD/svg11.dtd">
<svg width="100%" height="100%" viewBox="0 0 69 69" version="1.1" xmlns="http://www.w3.org/2000/svg" xmlns:xlink="http://www.w3.org/1999/xlink" xml:space="preserve" xmlns:serif="http://www.serif.com/" style="fill-rule:evenodd;clip-rule:evenodd;stroke-linejoin:round;stroke-miterlimit:2;">
    <rect id="Icon_Redo" x="0.234" y="0.138" width="68.336" height="68.336" style="fill:none;"/>
    <g id="Icon_Redo1" serif:id="Icon_Redo">
        <path d="M39.693,33.366C29.647,33.752 21.61,42.03 21.61,52.17C21.61,54.516 19.706,56.42 17.36,56.42C15.014,56.42 13.11,54.516 13.11,52.17C13.11,37.358 24.923,25.284 39.633,24.863L33.715,19.416L40.149,12.426L54.662,25.786C55.65,26.696 56.207,27.981 56.195,29.323C56.183,30.666 55.603,31.941 54.599,32.832L40.03,45.773L33.721,38.67L37.273,35.516C37.273,35.516 38.365,34.545 39.693,33.366Z"/>
    </g>
</svg>
