<svg xmlns="http://www.w3.org/2000/svg" width="1024" height="1024" viewBox="0 0 1024 1024">
  <defs>
    <linearGradient id="bg" x1="0" y1="0" x2="0" y2="1">
      <stop offset="0" stop-color="#1b3354"/>
      <stop offset="1" stop-color="#0b1627"/>
    </linearGradient>
    <linearGradient id="sheen" x1="0" y1="0" x2="0" y2="1">
      <stop offset="0" stop-color="#ffffff" stop-opacity="0.10"/>
      <stop offset="0.5" stop-color="#ffffff" stop-opacity="0"/>
    </linearGradient>

  </defs>
  <rect x="64" y="64" width="896" height="896" rx="200" fill="url(#bg)"/>
  <rect x="64" y="64" width="896" height="896" rx="200" fill="url(#sheen)"/>
  <rect x="66" y="66" width="892" height="892" rx="198" fill="none" stroke="#ffffff" stroke-opacity="0.08" stroke-width="4"/>
  <circle cx="512" cy="512" r="290" fill="#e8eef6"/>
  <g fill="#0e1d33"><rect x="494" y="262" width="36" height="64" rx="14"/><rect x="494" y="698" width="36" height="64" rx="14"/><rect x="262" y="494" width="64" height="36" rx="14"/><rect x="698" y="494" width="64" height="36" rx="14"/></g>
  <g stroke="#0e1d33" stroke-linecap="round"><path d="M512 512 L398 446" stroke-width="46"/><path d="M512 512 L638 336" stroke-width="34"/></g>
  <path d="M512 512 L560 660" stroke="#ff5c39" stroke-width="22" stroke-linecap="round"/>
  <circle cx="512" cy="512" r="34" fill="#ff5c39"/>
</svg>
