<svg width="24" height="24" viewBox="0 0 24 24" fill="none" xmlns="http://www.w3.org/2000/svg"><path d="M3.654 1.059 C 3.292 1.125,3.120 1.181,2.820 1.331 C 2.137 1.672,1.637 2.181,1.304 2.878 C 0.998 3.516,1.020 2.804,1.020 12.000 C 1.020 19.750,1.024 20.237,1.091 20.524 C 1.361 21.672,2.328 22.639,3.476 22.909 C 3.763 22.976,4.250 22.980,12.000 22.980 C 19.750 22.980,20.237 22.976,20.524 22.909 C 21.672 22.639,22.639 21.672,22.909 20.524 C 22.976 20.237,22.980 19.750,22.980 12.000 C 22.980 4.250,22.976 3.763,22.909 3.476 C 22.646 2.357,21.747 1.433,20.606 1.107 L 20.300 1.020 12.120 1.013 C 5.545 1.008,3.884 1.017,3.654 1.059 M7.680 12.000 L 7.680 21.000 5.842 21.000 C 4.083 21.000,3.993 20.996,3.783 20.918 C 3.528 20.822,3.251 20.572,3.113 20.315 L 3.020 20.140 3.010 12.086 C 3.003 6.680,3.013 3.981,3.040 3.879 C 3.131 3.543,3.524 3.139,3.854 3.044 C 3.923 3.024,4.813 3.006,5.830 3.004 L 7.680 3.000 7.680 12.000 M20.220 3.083 C 20.518 3.195,20.805 3.482,20.917 3.780 L 21.000 4.003 21.000 12.000 L 21.000 19.997 20.917 20.220 C 20.805 20.518,20.518 20.805,20.220 20.917 C 19.998 21.000,19.970 21.000,14.838 21.000 L 9.680 21.000 9.680 12.000 L 9.680 3.000 14.838 3.000 C 19.970 3.000,19.998 3.000,20.220 3.083 M16.115 7.735 C 16.036 7.764,15.919 7.825,15.855 7.871 C 15.631 8.034,12.287 11.422,12.215 11.560 C 12.163 11.659,12.141 11.788,12.141 12.000 C 12.140 12.255,12.156 12.327,12.247 12.480 C 12.383 12.707,15.812 16.127,15.998 16.221 C 16.074 16.259,16.249 16.300,16.387 16.311 C 16.602 16.328,16.668 16.316,16.858 16.223 C 17.358 15.978,17.575 15.387,17.338 14.912 C 17.302 14.839,16.649 14.155,15.886 13.390 L 14.500 12.000 15.886 10.610 C 16.649 9.845,17.302 9.161,17.338 9.088 C 17.573 8.619,17.349 8.002,16.863 7.775 C 16.634 7.669,16.345 7.653,16.115 7.735 " stroke="none" fill-rule="evenodd" fill="black"></path></svg>