<svg width="24" height="24" viewBox="0 0 24 24" fill="none" xmlns="http://www.w3.org/2000/svg"><path d="M3.654 1.059 C 3.292 1.125,3.120 1.181,2.820 1.331 C 2.137 1.672,1.637 2.181,1.304 2.878 C 0.998 3.516,1.020 2.804,1.020 12.000 C 1.020 19.750,1.024 20.237,1.091 20.524 C 1.361 21.672,2.328 22.639,3.476 22.909 C 3.763 22.976,4.250 22.980,12.000 22.980 C 19.750 22.980,20.237 22.976,20.524 22.909 C 21.672 22.639,22.639 21.672,22.909 20.524 C 22.976 20.237,22.980 19.750,22.980 12.000 C 22.980 4.250,22.976 3.763,22.909 3.476 C 22.646 2.357,21.747 1.433,20.606 1.107 L 20.300 1.020 12.120 1.013 C 5.545 1.008,3.884 1.017,3.654 1.059 M14.320 12.000 L 14.320 21.000 9.162 21.000 C 4.050 21.000,4.001 20.999,3.783 20.918 C 3.528 20.822,3.251 20.572,3.113 20.315 L 3.020 20.140 3.010 12.086 C 3.003 6.680,3.013 3.981,3.040 3.879 C 3.131 3.543,3.524 3.139,3.854 3.044 C 3.927 3.023,6.174 3.006,9.150 3.004 L 14.320 3.000 14.320 12.000 M20.220 3.083 C 20.518 3.195,20.805 3.482,20.917 3.780 L 21.000 4.003 21.000 12.000 L 21.000 19.997 20.917 20.220 C 20.805 20.518,20.518 20.805,20.220 20.917 C 20.006 20.997,19.924 21.000,18.158 21.000 L 16.320 21.000 16.320 12.000 L 16.320 3.000 18.158 3.000 C 19.924 3.000,20.006 3.003,20.220 3.083 M7.137 7.773 C 6.649 8.006,6.428 8.619,6.662 9.088 C 6.698 9.161,7.351 9.845,8.114 10.610 L 9.500 12.000 8.114 13.390 C 7.351 14.155,6.698 14.839,6.662 14.912 C 6.422 15.392,6.662 16.022,7.167 16.239 C 7.413 16.345,7.770 16.337,8.002 16.221 C 8.078 16.183,8.952 15.339,9.945 14.346 C 11.568 12.722,11.756 12.520,11.815 12.343 C 11.897 12.094,11.897 11.906,11.815 11.657 C 11.756 11.480,11.568 11.278,9.945 9.654 C 8.952 8.661,8.077 7.816,8.000 7.778 C 7.923 7.739,7.743 7.701,7.600 7.692 C 7.386 7.679,7.304 7.693,7.137 7.773 " stroke="none" fill-rule="evenodd" fill="black"></path></svg>