<?xml version="1.0" encoding="UTF-8" standalone="no"?><!DOCTYPE svg PUBLIC "-//W3C//DTD SVG 1.1//EN" "http://www.w3.org/Graphics/SVG/1.1/DTD/svg11.dtd"><svg width="100%" height="100%" viewBox="0 0 49 49" version="1.1" xmlns="http://www.w3.org/2000/svg" xmlns:xlink="http://www.w3.org/1999/xlink" xml:space="preserve" xmlns:serif="http://www.serif.com/" style="fill-rule:evenodd;clip-rule:evenodd;stroke-linejoin:round;stroke-miterlimit:2;"><rect id="icon_log" x="0.057" y="0.231" width="48" height="48" style="fill:none;"/><path d="M11.857,31.995c0.555,-0 1.109,0.554 1.109,1.109l0,4.436c0,0.624 -0.554,1.109 -1.109,1.109l-4.436,0c-0.624,0 -1.109,-0.485 -1.109,-1.109l-0,-4.436c-0,-0.555 0.485,-1.109 1.109,-1.109l4.436,-0Zm0,-22.182c0.555,0 1.109,0.555 1.109,1.11l0,4.436c0,0.624 -0.554,1.109 -1.109,1.109l-4.436,-0c-0.624,-0 -1.109,-0.485 -1.109,-1.109l-0,-4.436c-0,-0.555 0.485,-1.11 1.109,-1.11l4.436,0Zm0,11.091c0.555,0 1.109,0.555 1.109,1.109l0,4.437c0,0.623 -0.554,1.109 -1.109,1.109l-4.436,-0c-0.624,-0 -1.109,-0.486 -1.109,-1.109l-0,-4.437c-0,-0.554 0.485,-1.109 1.109,-1.109l4.436,0Zm28.836,12.2c0.555,-0 1.109,0.555 1.109,1.109l0,2.218c0,0.624 -0.554,1.109 -1.109,1.109l-22.181,0c-0.624,0 -1.109,-0.485 -1.109,-1.109l-0,-2.218c-0,-0.554 0.485,-1.109 1.109,-1.109l22.181,-0Zm0,-22.181c0.555,-0 1.109,0.554 1.109,1.109l0,2.218c0,0.624 -0.554,1.109 -1.109,1.109l-22.181,-0c-0.624,-0 -1.109,-0.485 -1.109,-1.109l-0,-2.218c-0,-0.555 0.485,-1.109 1.109,-1.109l22.181,-0Zm0,11.09c0.555,0 1.109,0.555 1.109,1.109l0,2.218c0,0.624 -0.554,1.11 -1.109,1.11l-22.181,-0c-0.624,-0 -1.109,-0.486 -1.109,-1.11l-0,-2.218c-0,-0.554 0.485,-1.109 1.109,-1.109l22.181,0Z"/></svg>