<?xml version="1.0" encoding="UTF-8" standalone="no"?><!DOCTYPE svg PUBLIC "-//W3C//DTD SVG 1.1//EN" "http://www.w3.org/Graphics/SVG/1.1/DTD/svg11.dtd"><svg width="100%" height="100%" viewBox="0 0 48 49" version="1.1" xmlns="http://www.w3.org/2000/svg" xmlns:xlink="http://www.w3.org/1999/xlink" xml:space="preserve" xmlns:serif="http://www.serif.com/" style="fill-rule:evenodd;clip-rule:evenodd;stroke-linejoin:round;stroke-miterlimit:2;"><rect id="Icon_Vector" x="0" y="0.082" width="48" height="48" style="fill:none;"/><path d="M22.484,16.226l-0,-3.032l3.032,0l0,3.032l-3.032,0Zm-0.505,-6.569c-1.674,-0 -3.033,1.358 -3.033,3.032l0,0.252l-7.479,0c-0.657,-1.345 -2.04,-2.274 -3.638,-2.274c-2.23,0 -4.043,1.813 -4.043,4.043c-0,2.23 1.813,4.043 4.043,4.043c1.598,0 2.981,-0.929 3.638,-2.274l4.226,-0c-3.72,2.501 -6.247,6.633 -6.569,11.37l-0.285,0c-1.674,0 -3.032,1.359 -3.032,3.033l0,4.042c0,1.674 1.358,3.033 3.032,3.033l4.043,-0c1.674,-0 3.032,-1.359 3.032,-3.033l0,-4.042c0,-1.674 -1.358,-3.033 -3.032,-3.033l-0.208,0c0.372,-4.232 3.063,-7.795 6.79,-9.418c0.544,0.802 1.466,1.333 2.515,1.333l4.042,-0c1.049,-0 1.965,-0.531 2.515,-1.333c3.727,1.623 6.418,5.186 6.79,9.418l-0.208,0c-1.674,0 -3.032,1.359 -3.032,3.033l-0,4.042c-0,1.674 1.358,3.033 3.032,3.033l4.043,-0c1.674,-0 3.032,-1.359 3.032,-3.033l-0,-4.042c-0,-1.674 -1.358,-3.033 -3.032,-3.033l-0.285,0c-0.315,-4.737 -2.849,-8.869 -6.569,-11.37l4.226,-0c0.657,1.345 2.04,2.274 3.638,2.274c2.23,0 4.043,-1.813 4.043,-4.043c0,-2.23 -1.813,-4.043 -4.043,-4.043c-1.598,0 -2.981,0.929 -3.638,2.274l-7.479,0l-0,-0.252c-0,-1.674 -1.359,-3.032 -3.033,-3.032l-4.042,-0l-0,-0Zm-12.634,21.73l3.032,-0l-0,3.032l-3.032,0l-0,-3.032Zm26.278,3.032l0,-3.032l3.032,-0l0,3.032l-3.032,0Z" style="fill-rule:nonzero;"/></svg>