<?xml version="1.0" encoding="UTF-8" standalone="no"?><!DOCTYPE svg PUBLIC "-//W3C//DTD SVG 1.1//EN" "http://www.w3.org/Graphics/SVG/1.1/DTD/svg11.dtd"><svg width="100%" height="100%" viewBox="0 0 49 49" version="1.1" xmlns="http://www.w3.org/2000/svg" xmlns:xlink="http://www.w3.org/1999/xlink" xml:space="preserve" xmlns:serif="http://www.serif.com/" style="fill-rule:evenodd;clip-rule:evenodd;stroke-linejoin:round;stroke-miterlimit:2;"><rect id="icon_profiler" x="0.003" y="0.231" width="48" height="48" style="fill:none;"/><path d="M18.947,10.193c0,-2.114 1.699,-3.829 3.792,-3.829l2.529,0c2.093,0 3.792,1.715 3.792,3.829l-0,28.077c-0,2.114 -1.699,3.829 -3.792,3.829l-2.529,-0c-2.093,-0 -3.792,-1.715 -3.792,-3.829l0,-28.077Zm-12.641,15.315c0,-2.114 1.699,-3.829 3.793,-3.829l2.528,-0c2.093,-0 3.792,1.715 3.792,3.829l0,12.762c0,2.114 -1.699,3.829 -3.792,3.829l-2.528,-0c-2.094,-0 -3.793,-1.715 -3.793,-3.829l0,-12.762Zm29.074,-14.039l2.528,-0c2.094,-0 3.793,1.715 3.793,3.829l-0,22.972c-0,2.114 -1.699,3.829 -3.793,3.829l-2.528,-0c-2.093,-0 -3.792,-1.715 -3.792,-3.829l-0,-22.972c-0,-2.114 1.699,-3.829 3.792,-3.829Z"/></svg>