<?xml version="1.0" encoding="UTF-8" standalone="no"?><!DOCTYPE svg PUBLIC "-//W3C//DTD SVG 1.1//EN" "http://www.w3.org/Graphics/SVG/1.1/DTD/svg11.dtd"><svg width="100%" height="100%" viewBox="0 0 49 49" version="1.1" xmlns="http://www.w3.org/2000/svg" xmlns:xlink="http://www.w3.org/1999/xlink" xml:space="preserve" xmlns:serif="http://www.serif.com/" style="fill-rule:evenodd;clip-rule:evenodd;stroke-linejoin:round;stroke-miterlimit:2;"><rect id="icon_typography" x="0.238" y="0.128" width="48" height="48" style="fill:none;"/><path d="M37.53,16.898c0,0.239 -0.105,0.359 -0.314,0.359c-0.33,-0 -0.629,-0.584 -0.898,-1.751c-0.539,-2.306 -1.288,-3.877 -2.246,-4.716c-0.958,-0.838 -2.485,-1.257 -4.58,-1.257c-0.809,0 -1.512,0.03 -2.111,0.09l0.045,27.303c0.03,0.749 0.24,1.227 0.629,1.437c0.389,0.21 1.437,0.389 3.143,0.539c0.33,0.03 0.494,0.165 0.494,0.404c0,0.3 -0.239,0.449 -0.718,0.449c-0.09,0 -0.315,-0.015 -0.674,-0.045c-0.449,-0.03 -0.823,-0.045 -1.123,-0.045l-4.625,-0.134l-7.634,0.134c-0.419,0 -0.629,-0.119 -0.629,-0.359c0,-0.179 0.06,-0.284 0.18,-0.314c0.12,-0.03 0.614,-0.06 1.482,-0.09c1.646,-0.06 2.53,-0.449 2.649,-1.168c0.06,-0.389 0.09,-3.427 0.09,-9.116l0,-18.995c-0.329,-0.03 -0.718,-0.045 -1.167,-0.045c-2.395,-0 -4.147,0.449 -5.255,1.347c-1.077,0.868 -1.781,2.425 -2.11,4.67c-0.21,1.318 -0.479,1.976 -0.808,1.976c-0.27,0 -0.405,-0.179 -0.405,-0.539c0,-0.239 0.06,-1.062 0.18,-2.469c0.239,-2.934 0.389,-4.94 0.449,-6.018l0.674,0l3.278,-0.045c0.09,0 1.123,0.03 3.098,0.09c2.006,0.06 4.551,0.09 7.635,0.09c1.706,-0 3.233,-0.015 4.58,-0.045c1.347,-0.03 2.575,-0.045 3.682,-0.045c0.988,0 1.737,-0.03 2.246,-0.09c0.089,1.946 0.314,4.431 0.673,7.455c0.06,0.509 0.09,0.823 0.09,0.943Z"/></svg>