<?xml version="1.0" encoding="UTF-8" standalone="no"?><!DOCTYPE svg PUBLIC "-//W3C//DTD SVG 1.1//EN" "http://www.w3.org/Graphics/SVG/1.1/DTD/svg11.dtd"><svg width="100%" height="100%" viewBox="0 0 48 49" version="1.1" xmlns="http://www.w3.org/2000/svg" xmlns:xlink="http://www.w3.org/1999/xlink" xml:space="preserve" xmlns:serif="http://www.serif.com/" style="fill-rule:evenodd;clip-rule:evenodd;stroke-linejoin:round;stroke-miterlimit:2;"><rect id="icon_outliner" x="0" y="0.311" width="48" height="48" style="fill:none;"/><path d="M10.527,10.96l-0,3.997l11.548,0l0,3.998l-11.548,0l-0,13.991l11.548,0l0,3.998l-11.548,-0c-2.123,-0 -3.85,-1.793 -3.85,-3.998l0,-21.986c0,-1.106 0.861,-1.999 1.925,-1.999c1.065,0 1.925,0.893 1.925,1.999Zm13.473,9.994l0,-9.994c0,-1.106 0.86,-1.999 1.925,-1.999l4.018,0c0.511,0 0.998,0.213 1.359,0.587l0.8,0.825c0.361,0.375 0.848,0.587 1.359,0.587l5.937,-0c1.065,-0 1.925,0.893 1.925,1.999l-0,7.995c-0,1.105 -0.86,1.999 -1.925,1.999l-13.473,-0c-1.065,-0 -1.925,-0.894 -1.925,-1.999Zm0,17.989l0,-10c0,-1.106 0.86,-1.999 1.925,-1.999l4.018,-0c0.511,-0 0.998,0.212 1.359,0.587l0.8,0.831c0.361,0.374 0.848,0.587 1.359,0.587l5.937,-0c1.065,-0 1.925,0.893 1.925,1.999l-0,7.995c-0,1.105 -0.86,1.998 -1.925,1.998l-13.473,0c-1.065,0 -1.925,-0.893 -1.925,-1.998Z"/></svg>