<?xml version="1.0" encoding="UTF-8" standalone="no"?><!DOCTYPE svg PUBLIC "-//W3C//DTD SVG 1.1//EN" "http://www.w3.org/Graphics/SVG/1.1/DTD/svg11.dtd"><svg width="100%" height="100%" viewBox="0 0 49 49" version="1.1" xmlns="http://www.w3.org/2000/svg" xmlns:xlink="http://www.w3.org/1999/xlink" xml:space="preserve" xmlns:serif="http://www.serif.com/" style="fill-rule:evenodd;clip-rule:evenodd;stroke-linejoin:round;stroke-miterlimit:2;"><rect id="icon_typography" x="0.174" y="0.128" width="48" height="48" style="fill:none;"/><path d="M37.466,16.898c0,0.239 -0.104,0.359 -0.314,0.359c-0.329,-0 -0.629,-0.584 -0.898,-1.751c-0.539,-2.306 -1.287,-3.877 -2.245,-4.716c-0.958,-0.838 -2.485,-1.257 -4.581,-1.257c-0.808,0 -1.512,0.03 -2.111,0.09l0.045,27.303c0.03,0.749 0.24,1.227 0.629,1.437c0.389,0.21 1.437,0.389 3.144,0.539c0.329,0.03 0.493,0.165 0.493,0.404c0,0.3 -0.239,0.449 -0.718,0.449c-0.09,0 -0.314,-0.015 -0.674,-0.045c-0.449,-0.03 -0.823,-0.045 -1.122,-0.045l-4.626,-0.134l-7.634,0.134c-0.419,0 -0.628,-0.119 -0.628,-0.359c-0,-0.179 0.059,-0.284 0.179,-0.314c0.12,-0.03 0.614,-0.06 1.482,-0.09c1.647,-0.06 2.53,-0.449 2.65,-1.168c0.059,-0.389 0.089,-3.427 0.089,-9.116l0,-18.995c-0.329,-0.03 -0.718,-0.045 -1.167,-0.045c-2.395,-0 -4.147,0.449 -5.254,1.347c-1.078,0.868 -1.782,2.425 -2.111,4.67c-0.209,1.318 -0.479,1.976 -0.808,1.976c-0.27,0 -0.404,-0.179 -0.404,-0.539c-0,-0.239 0.06,-1.062 0.179,-2.469c0.24,-2.934 0.389,-4.94 0.449,-6.018l0.674,0l3.278,-0.045c0.09,0 1.123,0.03 3.099,0.09c2.006,0.06 4.55,0.09 7.634,0.09c1.706,-0 3.233,-0.015 4.58,-0.045c1.347,-0.03 2.575,-0.045 3.683,-0.045c0.988,0 1.736,-0.03 2.245,-0.09c0.09,1.946 0.314,4.431 0.674,7.455c0.059,0.509 0.089,0.823 0.089,0.943Z"/></svg>