<?xml version="1.0" encoding="UTF-8" standalone="no"?><!DOCTYPE svg PUBLIC "-//W3C//DTD SVG 1.1//EN" "http://www.w3.org/Graphics/SVG/1.1/DTD/svg11.dtd"><svg width="100%" height="100%" viewBox="0 0 49 49" version="1.1" xmlns="http://www.w3.org/2000/svg" xmlns:xlink="http://www.w3.org/1999/xlink" xml:space="preserve" xmlns:serif="http://www.serif.com/" style="fill-rule:evenodd;clip-rule:evenodd;stroke-linejoin:round;stroke-miterlimit:2;"><rect id="Widget" x="0.158" y="0.082" width="48" height="48" style="fill:none;"/><path d="M12.374,18.6l-4.276,-0c-1.226,-0 -2.221,-0.995 -2.221,-2.22c0,-1.226 0.995,-2.221 2.221,-2.221l4.276,0l0,-2.478c0,-1.225 0.995,-2.22 2.22,-2.22c1.226,0 2.221,0.995 2.221,2.22l-0,2.478l23.403,0c1.225,0 2.22,0.995 2.22,2.221c0,1.225 -0.995,2.22 -2.22,2.22l-23.403,-0l-0,2.478c-0,1.225 -0.995,2.22 -2.221,2.22c-1.225,0 -2.22,-0.995 -2.22,-2.22l0,-2.478Zm15.706,15.405l-19.982,-0c-1.226,-0 -2.221,-0.995 -2.221,-2.22c0,-1.226 0.995,-2.221 2.221,-2.221l19.982,0l-0,-2.478c-0,-1.225 0.995,-2.22 2.22,-2.22c1.225,0 2.22,0.995 2.22,2.22l0,2.478l7.698,0c1.225,0 2.22,0.995 2.22,2.221c0,1.225 -0.995,2.22 -2.22,2.22l-7.698,-0l0,2.478c0,1.225 -0.995,2.22 -2.22,2.22c-1.225,0 -2.22,-0.995 -2.22,-2.22l-0,-2.478Z"/></svg>