<?xml version="1.0" encoding="UTF-8" standalone="no"?><!DOCTYPE svg PUBLIC "-//W3C//DTD SVG 1.1//EN" "http://www.w3.org/Graphics/SVG/1.1/DTD/svg11.dtd"><svg width="100%" height="100%" viewBox="0 0 49 49" version="1.1" xmlns="http://www.w3.org/2000/svg" xmlns:xlink="http://www.w3.org/1999/xlink" xml:space="preserve" xmlns:serif="http://www.serif.com/" style="fill-rule:evenodd;clip-rule:evenodd;stroke-linejoin:round;stroke-miterlimit:2;"><rect id="Icon_Image" x="0.149" y="0.082" width="48" height="48" style="fill:none;"/><path d="M7.978,13.7c-0,-2.23 1.813,-4.043 4.042,-4.043l24.258,-0c2.229,-0 4.042,1.813 4.042,4.043l0,20.214c0,2.23 -1.813,4.043 -4.042,4.043l-24.258,-0c-2.229,-0 -4.042,-1.813 -4.042,-4.043l-0,-20.214Zm20.454,6.727c-0.284,-0.417 -0.752,-0.663 -1.251,-0.663c-0.499,-0 -0.973,0.246 -1.251,0.663l-5.495,8.061l-1.674,-2.091c-0.291,-0.36 -0.727,-0.569 -1.182,-0.569c-0.454,0 -0.897,0.209 -1.181,0.569l-4.043,5.053c-0.366,0.455 -0.436,1.08 -0.183,1.605c0.253,0.524 0.783,0.859 1.365,0.859l21.225,-0c0.562,-0 1.08,-0.31 1.339,-0.809c0.259,-0.499 0.227,-1.099 -0.089,-1.56l-7.58,-11.118l-0,0Zm-13.379,-0.663c1.083,-0 2.084,-0.578 2.626,-1.516c0.541,-0.938 0.541,-2.094 -0,-3.032c-0.542,-0.939 -1.543,-1.516 -2.626,-1.516c-1.084,-0 -2.085,0.577 -2.626,1.516c-0.542,0.938 -0.542,2.094 -0,3.032c0.541,0.938 1.542,1.516 2.626,1.516Z" style="fill-rule:nonzero;"/></svg>