<?xml version="1.0" encoding="UTF-8" standalone="no"?><!DOCTYPE svg PUBLIC "-//W3C//DTD SVG 1.1//EN" "http://www.w3.org/Graphics/SVG/1.1/DTD/svg11.dtd"><svg width="100%" height="100%" viewBox="0 0 49 49" version="1.1" xmlns="http://www.w3.org/2000/svg" xmlns:xlink="http://www.w3.org/1999/xlink" xml:space="preserve" xmlns:serif="http://www.serif.com/" style="fill-rule:evenodd;clip-rule:evenodd;stroke-linejoin:round;stroke-miterlimit:2;"><rect id="icon_text_align_justify" x="0.122" y="0.118" width="48" height="48" style="fill:none;"/><path d="M39.204,11.191c-0,1.191 -0.963,2.154 -2.155,2.154l-25.853,0c-1.192,0 -2.155,-0.963 -2.155,-2.154c0,-1.192 0.963,-2.155 2.155,-2.155l25.853,0c1.192,0 2.155,0.963 2.155,2.155Zm-0,17.236c-0,1.191 -0.963,2.154 -2.155,2.154l-25.853,0c-1.192,0 -2.155,-0.963 -2.155,-2.154c0,-1.192 0.963,-2.155 2.155,-2.155l25.853,0c1.192,0 2.155,0.963 2.155,2.155Zm-30.163,-8.618c0,-1.192 0.963,-2.155 2.155,-2.155l25.853,0c1.192,0 2.155,0.963 2.155,2.155c-0,1.191 -0.963,2.154 -2.155,2.154l-25.853,0c-1.192,0 -2.155,-0.963 -2.155,-2.154Zm30.163,17.236c-0,1.191 -0.963,2.154 -2.155,2.154l-25.853,0c-1.192,0 -2.155,-0.963 -2.155,-2.154c0,-1.192 0.963,-2.155 2.155,-2.155l25.853,0c1.192,0 2.155,0.963 2.155,2.155Z"/></svg>