<?xml version="1.0" encoding="UTF-8" standalone="no"?><!DOCTYPE svg PUBLIC "-//W3C//DTD SVG 1.1//EN" "http://www.w3.org/Graphics/SVG/1.1/DTD/svg11.dtd"><svg width="100%" height="100%" viewBox="0 0 49 49" version="1.1" xmlns="http://www.w3.org/2000/svg" xmlns:xlink="http://www.w3.org/1999/xlink" xml:space="preserve" xmlns:serif="http://www.serif.com/" style="fill-rule:evenodd;clip-rule:evenodd;stroke-linejoin:round;stroke-miterlimit:2;"><rect id="Icon_Layout" x="0.235" y="0.082" width="48" height="48" style="fill:none;"/><path d="M20.567,25.216c0.545,-0 1.068,0.216 1.453,0.601c0.386,0.386 0.602,0.908 0.602,1.453l0,8.786c0,0.545 -0.216,1.068 -0.602,1.453c-0.385,0.386 -0.908,0.602 -1.453,0.602l-8.786,0c-0.545,0 -1.067,-0.216 -1.453,-0.602c-0.385,-0.385 -0.602,-0.908 -0.602,-1.453l0,-8.786c0,-0.545 0.217,-1.067 0.602,-1.453c0.386,-0.385 0.908,-0.601 1.453,-0.601l8.786,-0Zm16.122,-0c0.545,-0 1.068,0.216 1.453,0.601c0.386,0.386 0.602,0.908 0.602,1.453l-0,8.786c-0,0.545 -0.216,1.068 -0.602,1.453c-0.385,0.386 -0.908,0.602 -1.453,0.602l-8.786,0c-0.545,0 -1.068,-0.216 -1.453,-0.602c-0.385,-0.385 -0.602,-0.908 -0.602,-1.453l0,-8.786c0,-0.545 0.217,-1.067 0.602,-1.453c0.385,-0.385 0.908,-0.601 1.453,-0.601l8.786,-0Zm0,-16.123c0.545,-0 1.068,0.216 1.453,0.602c0.386,0.385 0.602,0.908 0.602,1.453l-0,8.786c-0,0.545 -0.216,1.067 -0.602,1.453c-0.385,0.385 -0.908,0.602 -1.453,0.602l-24.908,-0c-0.545,-0 -1.067,-0.217 -1.453,-0.602c-0.385,-0.386 -0.602,-0.908 -0.602,-1.453l0,-8.786c0,-0.545 0.217,-1.068 0.602,-1.453c0.386,-0.386 0.908,-0.602 1.453,-0.602l24.908,-0Z"/></svg>