<svg width="24" height="24" viewBox="0 0 24 24" fill="none" xmlns="http://www.w3.org/2000/svg"><path d="M4.654 1.059 C 4.292 1.125,4.120 1.181,3.820 1.331 C 3.137 1.672,2.637 2.181,2.304 2.878 C 1.998 3.516,2.020 2.804,2.020 12.000 C 2.020 19.750,2.024 20.237,2.091 20.524 C 2.361 21.672,3.328 22.639,4.476 22.909 C 4.763 22.976,5.250 22.980,13.000 22.980 C 20.750 22.980,21.237 22.976,21.524 22.909 C 22.672 22.639,23.639 21.672,23.909 20.524 C 23.976 20.237,23.980 19.750,23.980 12.000 C 23.980 4.250,23.976 3.763,23.909 3.476 C 23.646 2.357,22.747 1.433,21.606 1.107 L 21.300 1.020 13.120 1.013 C 6.545 1.008,4.884 1.017,4.654 1.059 M7.560 12.000 L 7.560 21.000 6.282 21.000 C 5.088 21.000,4.988 20.994,4.783 20.918 C 4.528 20.822,4.251 20.572,4.113 20.315 L 4.020 20.140 4.010 12.086 C 4.003 6.680,4.013 3.981,4.040 3.879 C 4.131 3.543,4.524 3.139,4.854 3.044 C 4.923 3.024,5.560 3.006,6.270 3.004 L 7.560 3.000 7.560 12.000 M21.220 3.083 C 21.518 3.195,21.805 3.482,21.917 3.780 L 22.000 4.003 22.000 12.000 L 22.000 19.997 21.917 20.220 C 21.805 20.518,21.518 20.805,21.220 20.917 C 20.998 21.000,20.978 21.000,15.278 21.000 L 9.560 21.000 9.560 12.000 L 9.560 3.000 15.278 3.000 C 20.978 3.000,20.998 3.000,21.220 3.083 M12.670 7.735 C 12.325 7.863,12.109 8.120,12.031 8.495 C 11.991 8.684,11.995 8.750,12.056 8.948 C 12.125 9.171,12.179 9.232,13.533 10.590 L 14.938 12.000 13.533 13.410 C 12.179 14.768,12.125 14.829,12.056 15.052 C 11.994 15.252,11.991 15.315,12.032 15.512 C 12.092 15.801,12.249 16.025,12.498 16.179 C 12.671 16.286,12.729 16.300,12.997 16.299 C 13.212 16.299,13.341 16.277,13.440 16.225 C 13.632 16.124,17.059 12.704,17.193 12.480 C 17.284 12.327,17.300 12.255,17.299 12.000 C 17.299 11.788,17.277 11.659,17.225 11.560 C 17.127 11.372,13.706 7.942,13.488 7.813 C 13.277 7.687,12.895 7.651,12.670 7.735 " stroke="none" fill-rule="evenodd" fill="black"></path></svg>