<?xml version="1.0" encoding="UTF-8" standalone="no"?>
<!DOCTYPE svg PUBLIC "-//W3C//DTD SVG 1.1//EN" "http://www.w3.org/Graphics/SVG/1.1/DTD/svg11.dtd">
<svg width="100%" height="100%" viewBox="0 0 19 18" version="1.1" xmlns="http://www.w3.org/2000/svg" xmlns:xlink="http://www.w3.org/1999/xlink" xml:space="preserve" xmlns:serif="http://www.serif.com/" style="fill-rule:evenodd;clip-rule:evenodd;stroke-linejoin:round;stroke-miterlimit:2;">
    <g transform="matrix(-1,0,0,1,18.9721,0)">
        <path d="M18.666,6.426C19.074,6.797 19.074,7.428 18.666,7.799L12.135,13.44C11.578,13.922 10.688,13.514 10.688,12.734L10.688,9.506C4.898,9.58 2.449,10.99 4.119,16.371C4.305,16.965 3.563,17.447 3.08,17.076C1.447,15.889 0,13.625 0,11.361C0,5.721 4.713,4.496 10.688,4.459L10.688,1.49C10.688,0.711 11.578,0.303 12.135,0.785L18.666,6.426Z" style="fill-rule:nonzero;"/>
    </g>
</svg>
