<?xml version="1.0" encoding="UTF-8" standalone="no"?>
<!DOCTYPE svg PUBLIC "-//W3C//DTD SVG 1.1//EN" "http://www.w3.org/Graphics/SVG/1.1/DTD/svg11.dtd">
<svg width="100%" height="100%" viewBox="0 0 39 39" version="1.1" xmlns="http://www.w3.org/2000/svg" xmlns:xlink="http://www.w3.org/1999/xlink" xml:space="preserve" xmlns:serif="http://www.serif.com/" style="fill-rule:evenodd;clip-rule:evenodd;stroke-linejoin:round;stroke-miterlimit:2;">
    <path d="M19.5,0C30.262,0 39,8.738 39,19.5C39,30.262 30.262,39 19.5,39C8.738,39 0,30.262 0,19.5C0,8.738 8.738,0 19.5,0ZM19.5,3C10.393,3 3,10.393 3,19.5C3,28.607 10.393,36 19.5,36C28.607,36 36,28.607 36,19.5C36,10.393 28.607,3 19.5,3ZM28.5,17.25C29.297,17.25 30,17.953 30,18.75L30,20.25C30,21.094 29.297,21.75 28.5,21.75L21.75,21.75L21.75,28.5C21.75,29.344 21.047,30 20.25,30L18.75,30C17.906,30 17.25,29.344 17.25,28.5L17.25,21.75L10.5,21.75C9.656,21.75 9,21.094 9,20.25L9,18.75C9,17.953 9.656,17.25 10.5,17.25L17.25,17.25L17.25,10.5C17.25,9.703 17.906,9 18.75,9L20.25,9C21.047,9 21.75,9.703 21.75,10.5L21.75,17.25L28.5,17.25Z"/>
</svg>
