<?xml version="1.0" encoding="UTF-8" standalone="no"?>
<!DOCTYPE svg PUBLIC "-//W3C//DTD SVG 1.1//EN" "http://www.w3.org/Graphics/SVG/1.1/DTD/svg11.dtd">
<svg width="100%" height="100%" viewBox="0 0 20 18" version="1.1" xmlns="http://www.w3.org/2000/svg" xmlns:xlink="http://www.w3.org/1999/xlink" xml:space="preserve" xmlns:serif="http://www.serif.com/" style="fill-rule:evenodd;clip-rule:evenodd;stroke-linejoin:round;stroke-miterlimit:2;">
    <path d="M17.996,1.787C20.779,4.125 20.371,7.947 18.404,9.988L11.873,16.631C11.502,17.002 11.02,17.225 10.5,17.225C9.943,17.225 9.461,17.002 9.09,16.631L2.596,9.988C0.592,7.947 0.184,4.125 2.967,1.787C5.119,-0.031 8.422,0.229 10.5,2.344C12.541,0.229 15.844,-0.031 17.996,1.787ZM17.106,8.727C18.479,7.354 18.738,4.756 16.846,3.123C15.398,1.936 13.172,2.121 11.799,3.531L10.5,4.867L9.201,3.531C7.791,2.121 5.564,1.936 4.117,3.16C2.225,4.756 2.484,7.354 3.857,8.727L10.352,15.369C10.463,15.443 10.537,15.443 10.611,15.369L17.106,8.727Z" style="fill-rule:nonzero;"/>
</svg>
