<?xml version="1.0" encoding="UTF-8" standalone="no"?>
<!DOCTYPE svg PUBLIC "-//W3C//DTD SVG 1.1//EN" "http://www.w3.org/Graphics/SVG/1.1/DTD/svg11.dtd">
<svg width="100%" height="100%" viewBox="0 0 17 20" version="1.1" xmlns="http://www.w3.org/2000/svg" xmlns:xlink="http://www.w3.org/1999/xlink" xml:space="preserve" xmlns:serif="http://www.serif.com/" style="fill-rule:evenodd;clip-rule:evenodd;stroke-linejoin:round;stroke-miterlimit:2;">
    <path d="M11.615,11.656C14.361,11.656 16.625,13.92 16.625,16.666L16.625,17.594C16.625,18.596 15.809,19.375 14.844,19.375L1.781,19.375C0.779,19.375 0,18.596 0,17.594L0,16.666C0,13.92 2.227,11.656 4.973,11.656C6.049,11.656 6.531,12.25 8.313,12.25C10.057,12.25 10.539,11.656 11.615,11.656ZM14.844,17.594L14.844,16.666C14.844,14.885 13.397,13.438 11.615,13.438C11.059,13.438 10.205,14.031 8.313,14.031C6.383,14.031 5.529,13.438 4.973,13.438C3.191,13.438 1.781,14.885 1.781,16.666L1.781,17.594L14.844,17.594ZM8.313,11.063C5.344,11.063 2.969,8.688 2.969,5.719C2.969,2.787 5.344,0.375 8.313,0.375C11.244,0.375 13.656,2.787 13.656,5.719C13.656,8.688 11.244,11.063 8.313,11.063ZM8.313,2.156C6.346,2.156 4.75,3.789 4.75,5.719C4.75,7.686 6.346,9.281 8.313,9.281C10.242,9.281 11.875,7.686 11.875,5.719C11.875,3.789 10.242,2.156 8.313,2.156Z" style="fill-rule:nonzero;"/>
</svg>
