<?xml version="1.0" encoding="UTF-8" standalone="no"?>
<!DOCTYPE svg PUBLIC "-//W3C//DTD SVG 1.1//EN" "http://www.w3.org/Graphics/SVG/1.1/DTD/svg11.dtd">
<svg width="100%" height="100%" viewBox="0 0 23 18" version="1.1" xmlns="http://www.w3.org/2000/svg" xmlns:xlink="http://www.w3.org/1999/xlink" xml:space="preserve" xmlns:serif="http://www.serif.com/" style="fill-rule:evenodd;clip-rule:evenodd;stroke-linejoin:round;stroke-miterlimit:2;">
    <path d="M11.391,4.904C11.465,4.83 11.576,4.793 11.688,4.793C11.762,4.793 11.873,4.83 11.947,4.904L18.813,10.508L18.813,16.594C18.813,16.928 18.516,17.188 18.219,17.188L14.025,17.188C13.729,17.188 13.432,16.928 13.432,16.594L13.432,13.031C13.432,12.734 13.172,12.438 12.838,12.438L10.463,12.438C10.166,12.438 9.869,12.734 9.869,13.031L9.869,16.594C9.869,16.928 9.609,17.188 9.313,17.188L5.156,17.188C4.822,17.188 4.563,16.928 4.563,16.594L4.563,10.545L11.391,4.904ZM22.19,8.727C22.301,8.801 22.375,8.949 22.375,9.061C22.375,9.172 22.338,9.283 22.264,9.357L21.299,10.508C21.225,10.619 21.113,10.656 20.965,10.656C20.854,10.656 20.742,10.619 20.668,10.545L11.947,3.383C11.873,3.309 11.762,3.271 11.688,3.271C11.576,3.271 11.465,3.309 11.391,3.383L2.67,10.545C2.596,10.619 2.484,10.656 2.373,10.656C2.225,10.656 2.113,10.619 2.039,10.508L1.074,9.357C1.037,9.283 0.963,9.172 0.963,9.061C0.963,8.949 1.037,8.801 1.148,8.727L10.537,0.971C10.834,0.748 11.242,0.6 11.688,0.6C12.096,0.6 12.504,0.748 12.801,0.971L16.141,3.717L16.141,1.045C16.141,0.785 16.326,0.6 16.586,0.6L18.664,0.6C18.887,0.6 19.109,0.785 19.109,1.045L19.109,6.166L22.19,8.727Z"/>
</svg>
