<?xml version="1.0" encoding="UTF-8" standalone="no"?><!DOCTYPE svg PUBLIC "-//W3C//DTD SVG 1.1//EN" "http://www.w3.org/Graphics/SVG/1.1/DTD/svg11.dtd"><svg width="100%" height="100%" viewBox="0 0 163 163" version="1.1" xmlns="http://www.w3.org/2000/svg" xmlns:xlink="http://www.w3.org/1999/xlink" xml:space="preserve" xmlns:serif="http://www.serif.com/" style="fill-rule:evenodd;clip-rule:evenodd;stroke-linejoin:round;stroke-miterlimit:2;"><path d="M81.244,12.326c-4.766,-0 -8.616,3.85 -8.616,8.615l0,5.169c-19.654,3.985 -34.462,21.378 -34.462,42.217l-0,6.838c-0,12.224 -4.173,24.097 -11.793,33.628l-4.011,5.035c-1.562,1.938 -1.858,4.603 -0.781,6.838c1.077,2.235 3.338,3.662 5.815,3.662l107.695,-0c2.477,-0 4.738,-1.427 5.815,-3.662c1.077,-2.235 0.781,-4.9 -0.781,-6.838l-4.011,-5.008c-7.62,-9.558 -11.793,-21.431 -11.793,-33.655l0,-6.838c0,-20.839 -14.808,-38.232 -34.462,-42.217l0,-5.169c0,-4.765 -3.85,-8.615 -8.615,-8.615Zm-0,25.846c16.665,0 30.154,13.489 30.154,30.155l0,6.838c0,12.897 3.742,25.47 10.689,36.239l-81.687,0c6.947,-10.769 10.689,-23.342 10.689,-36.239l0,-6.838c0,-16.666 13.489,-30.155 30.155,-30.155Zm17.231,94.771l-34.463,0c0,4.577 1.804,8.966 5.035,12.197c3.231,3.231 7.62,5.034 12.197,5.034c4.577,0 8.965,-1.803 12.196,-5.034c3.231,-3.231 5.035,-7.62 5.035,-12.197Z" style="fill-rule:nonzero;"/></svg>