<?xml version="1.0" encoding="UTF-8" standalone="no"?>
<!DOCTYPE svg PUBLIC "-//W3C//DTD SVG 1.1//EN" "http://www.w3.org/Graphics/SVG/1.1/DTD/svg11.dtd">
<svg width="100%" height="100%" viewBox="0 0 75 30" version="1.1" xmlns="http://www.w3.org/2000/svg" xmlns:xlink="http://www.w3.org/1999/xlink" xml:space="preserve" xmlns:serif="http://www.serif.com/" style="fill-rule:evenodd;clip-rule:evenodd;stroke-linejoin:round;stroke-miterlimit:2;">
    <path d="M8.724,1.112L8.724,22.392C8.937,22.413 9.748,22.541 11.156,22.776C12.564,23.011 13.833,23.128 14.964,23.128C16.094,23.128 17.044,22.808 17.812,22.168C18.601,21.528 18.996,20.632 18.996,19.48C18.996,18.84 18.825,18.253 18.484,17.72C17.929,16.867 17.235,16.44 16.404,16.44C16.212,16.44 16.116,16.547 16.116,16.76C16.116,16.952 16.265,17.059 16.564,17.08C16.862,17.08 17.225,17.272 17.652,17.656C18.1,18.04 18.324,18.637 18.324,19.448C18.324,20.237 18.025,20.888 17.427,21.4C16.852,21.891 16.158,22.136 15.348,22.136C14.537,22.136 13.844,21.837 13.268,21.24C12.713,20.621 12.435,19.875 12.435,19C12.435,18.104 12.777,17.347 13.46,16.728C14.142,16.088 15.006,15.768 16.052,15.768C17.118,15.768 17.972,16.131 18.612,16.856C19.273,17.581 19.604,18.499 19.604,19.608C19.604,20.696 19.198,21.656 18.388,22.488C17.577,23.32 16.34,23.736 14.676,23.736C13.63,23.736 12.126,23.565 10.164,23.224C8.222,22.883 6.174,22.712 4.02,22.712L0.148,22.712L0.148,22.2L2.196,22.2L2.196,1.112L0.148,1.112L0.148,0.6L11.412,0.6L11.412,1.112L8.724,1.112ZM26.581,16.632C26.581,18.573 26.816,20.045 27.285,21.048C27.776,22.051 28.661,22.552 29.941,22.552C31.242,22.552 32.362,22.136 33.301,21.304C34.261,20.472 34.88,19.352 35.157,17.944L35.221,17.656L35.797,17.752C35.498,19.501 34.762,20.867 33.589,21.848C32.416,22.829 30.89,23.32 29.013,23.32C26.176,23.32 23.978,22.648 22.421,21.304C20.864,19.939 20.085,17.987 20.085,15.448C20.085,12.909 20.832,10.936 22.325,9.528C23.818,8.099 25.845,7.384 28.405,7.384C30.496,7.384 32.234,7.779 33.621,8.568C35.029,9.336 35.733,10.531 35.733,12.152C35.733,13.773 35.082,14.925 33.781,15.608C32.48,16.291 30.784,16.632 28.693,16.632L26.581,16.632ZM26.549,13.752L26.549,16.056L27.349,16.056C28.309,16.056 28.97,15.736 29.333,15.096C29.717,14.435 29.909,13.475 29.909,12.216C29.909,9.379 29.408,7.96 28.405,7.96C27.744,7.96 27.264,8.344 26.965,9.112C26.688,9.88 26.549,11.427 26.549,13.752ZM53.689,21.496C54.5,21.496 55.023,20.429 55.257,18.296L55.833,18.36C55.428,21.667 53.945,23.32 51.385,23.32C50.319,23.32 49.455,22.968 48.793,22.264C48.132,21.539 47.759,20.675 47.673,19.672L47.481,19.672C47.183,20.824 46.681,21.72 45.977,22.36C45.273,23 44.153,23.32 42.617,23.32C41.103,23.32 39.823,22.989 38.777,22.328C37.753,21.645 37.241,20.568 37.241,19.096C37.241,15.917 40.516,14.328 47.065,14.328L47.065,13.272C47.065,11.203 46.809,9.837 46.297,9.176C46.063,8.877 45.711,8.611 45.241,8.376C44.793,8.141 44.249,8.024 43.609,8.024C42.393,8.024 41.316,8.301 40.377,8.856C39.46,9.411 39.001,10.019 39.001,10.68C39.001,10.872 39.097,10.968 39.289,10.968C39.417,10.968 39.503,10.936 39.545,10.872C39.588,10.787 39.62,10.712 39.641,10.648C39.663,10.563 39.684,10.499 39.705,10.456C39.727,10.392 39.769,10.296 39.833,10.168C39.919,10.04 40.111,9.869 40.409,9.656C40.708,9.443 41.113,9.336 41.625,9.336C42.137,9.336 42.575,9.571 42.937,10.04C43.321,10.488 43.513,11.043 43.513,11.704C43.513,12.365 43.268,12.931 42.777,13.4C42.287,13.848 41.668,14.072 40.921,14.072C40.175,14.072 39.535,13.816 39.001,13.304C38.489,12.771 38.233,12.131 38.233,11.384C38.233,10.147 38.799,9.176 39.929,8.472C41.06,7.747 42.681,7.384 44.793,7.384C46.927,7.384 48.623,7.661 49.881,8.216C51.14,8.771 51.993,9.56 52.441,10.584C52.889,11.587 53.113,12.973 53.113,14.744L53.113,20.184C53.113,21.059 53.305,21.496 53.689,21.496ZM47.065,17.88L47.065,14.904L46.841,14.904C45.839,14.904 44.996,15.181 44.313,15.736C43.631,16.269 43.289,17.133 43.289,18.328C43.289,19.501 43.46,20.365 43.801,20.92C44.143,21.453 44.601,21.72 45.177,21.72C45.753,21.72 46.212,21.315 46.553,20.504C46.895,19.693 47.065,18.819 47.065,17.88ZM64.106,21.016L64.106,29.048L66.506,29.048L66.506,29.56L56.074,29.56L56.074,29.048L58.058,29.048L58.058,8.504L55.786,8.504L55.786,7.992L57.706,7.992C60.031,7.992 62.164,7.789 64.106,7.384L64.106,10.2L64.266,10.2C64.671,9.176 65.226,8.451 65.93,8.024C66.655,7.597 67.594,7.384 68.746,7.384C70.751,7.384 72.212,8.12 73.13,9.592C74.068,11.064 74.538,12.963 74.538,15.288C74.538,17.613 74.004,19.533 72.938,21.048C71.892,22.541 70.367,23.288 68.362,23.288C66.378,23.288 65.012,22.531 64.266,21.016L64.106,21.016ZM63.978,15.32L63.978,16.184C63.978,18.061 64.223,19.523 64.714,20.568C65.204,21.592 65.77,22.104 66.41,22.104C67.519,22.104 68.074,19.843 68.074,15.32C68.074,13.059 67.956,11.416 67.722,10.392C67.508,9.347 67.071,8.824 66.41,8.824C65.642,8.824 65.044,9.496 64.618,10.84C64.191,12.184 63.978,13.677 63.978,15.32Z" style="fill:rgb(255,136,136);"/>
</svg>
