<?xml version="1.0" encoding="UTF-8" standalone="no"?>
<!DOCTYPE svg PUBLIC "-//W3C//DTD SVG 1.1//EN" "http://www.w3.org/Graphics/SVG/1.1/DTD/svg11.dtd">
<svg width="100%" height="100%" viewBox="0 0 97 37" version="1.1" xmlns="http://www.w3.org/2000/svg" xmlns:xlink="http://www.w3.org/1999/xlink" xml:space="preserve" xmlns:serif="http://www.serif.com/" style="fill-rule:evenodd;clip-rule:evenodd;stroke-linejoin:round;stroke-miterlimit:2;">
    <g transform="matrix(1,0,0,1,-173.325,2.73089)">
        <rect id="ArtBoard3" x="173.325" y="-2.731" width="96.85" height="36.5" style="fill:none;"/>
        <clipPath id="_clip1">
            <rect id="ArtBoard31" serif:id="ArtBoard3" x="173.325" y="-2.731" width="96.85" height="36.5"/>
        </clipPath>
        <g clip-path="url(#_clip1)">
            <g transform="matrix(1,0,0,1,0.324632,0.269109)">
                <path d="M181.325,-0.981L181.325,14.669L185.375,14.669C186.275,14.669 186.958,14.594 187.425,14.444C187.891,14.294 188.233,13.977 188.45,13.494C188.666,13.011 188.775,12.269 188.775,11.269C188.775,10.969 188.741,10.352 188.675,9.419L189.675,9.419L190.875,21.419L189.825,21.419C189.591,19.619 189.325,18.327 189.025,17.544C188.725,16.761 188.308,16.252 187.775,16.019C187.241,15.786 186.375,15.669 185.175,15.669L181.325,15.669L181.325,28.319C181.325,29.452 181.383,30.277 181.5,30.794C181.616,31.311 181.825,31.686 182.125,31.919C182.425,32.152 182.908,32.352 183.575,32.519L183.575,33.019L173.325,33.019L173.325,32.519C173.991,32.319 174.475,32.111 174.775,31.894C175.075,31.677 175.283,31.311 175.4,30.794C175.516,30.277 175.575,29.452 175.575,28.319L175.575,2.719C175.575,1.586 175.516,0.761 175.4,0.244C175.283,-0.273 175.075,-0.639 174.775,-0.856C174.475,-1.073 173.991,-1.281 173.325,-1.481L173.325,-1.981L193.175,-1.981L194.675,10.269L193.675,10.269C192.975,6.902 192.283,4.427 191.6,2.844C190.916,1.261 190.158,0.227 189.325,-0.256C188.491,-0.739 187.308,-0.981 185.775,-0.981L181.325,-0.981ZM218.275,20.769L216.825,33.019L196.475,33.019L196.475,32.519C197.141,32.319 197.625,32.111 197.925,31.894C198.225,31.677 198.433,31.311 198.55,30.794C198.666,30.277 198.725,29.452 198.725,28.319L198.725,2.719C198.725,1.586 198.666,0.761 198.55,0.244C198.433,-0.273 198.225,-0.639 197.925,-0.856C197.625,-1.073 197.141,-1.281 196.475,-1.481L196.475,-1.981L215.875,-1.981L217.375,10.269L216.375,10.269C215.741,6.902 215.116,4.427 214.5,2.844C213.883,1.261 213.191,0.227 212.425,-0.256C211.658,-0.739 210.625,-0.981 209.325,-0.981L204.475,-0.981L204.475,14.269L208.775,14.269C209.641,14.269 210.291,14.202 210.725,14.069C211.158,13.936 211.466,13.652 211.65,13.219C211.833,12.786 211.925,12.102 211.925,11.169C211.925,10.869 211.891,10.152 211.825,9.019L212.825,9.019L214.025,21.019L212.975,21.019C212.741,19.152 212.491,17.844 212.225,17.094C211.958,16.344 211.575,15.852 211.075,15.619C210.575,15.386 209.741,15.269 208.575,15.269L204.475,15.269L204.475,32.019L210.225,32.019C211.491,32.019 212.508,31.769 213.275,31.269C214.041,30.769 214.75,29.719 215.4,28.119C216.05,26.519 216.675,24.069 217.275,20.769L218.275,20.769ZM242.225,20.769L240.775,33.019L220.425,33.019L220.425,32.519C221.091,32.319 221.575,32.111 221.875,31.894C222.175,31.677 222.383,31.311 222.5,30.794C222.616,30.277 222.675,29.452 222.675,28.319L222.675,2.719C222.675,1.586 222.616,0.761 222.5,0.244C222.383,-0.273 222.175,-0.639 221.875,-0.856C221.575,-1.073 221.091,-1.281 220.425,-1.481L220.425,-1.981L239.825,-1.981L241.325,10.269L240.325,10.269C239.691,6.902 239.066,4.427 238.45,2.844C237.833,1.261 237.141,0.227 236.375,-0.256C235.608,-0.739 234.575,-0.981 233.275,-0.981L228.425,-0.981L228.425,14.269L232.725,14.269C233.591,14.269 234.241,14.202 234.675,14.069C235.108,13.936 235.416,13.652 235.6,13.219C235.783,12.786 235.875,12.102 235.875,11.169C235.875,10.869 235.841,10.152 235.775,9.019L236.775,9.019L237.975,21.019L236.925,21.019C236.691,19.152 236.441,17.844 236.175,17.094C235.908,16.344 235.525,15.852 235.025,15.619C234.525,15.386 233.691,15.269 232.525,15.269L228.425,15.269L228.425,32.019L234.175,32.019C235.441,32.019 236.458,31.769 237.225,31.269C237.991,30.769 238.7,29.719 239.35,28.119C240,26.519 240.625,24.069 241.225,20.769L242.225,20.769ZM244.375,33.019L244.375,32.519C245.041,32.352 245.516,32.152 245.8,31.919C246.083,31.686 246.283,31.311 246.4,30.794C246.516,30.277 246.575,29.452 246.575,28.319L246.625,2.719C246.625,1.586 246.566,0.761 246.45,0.244C246.333,-0.273 246.125,-0.639 245.825,-0.856C245.525,-1.073 245.041,-1.281 244.375,-1.481L244.375,-1.981L247.325,-1.981C248.391,-2.014 250.041,-2.148 252.275,-2.381C253.808,-2.614 255.125,-2.731 256.225,-2.731C260.158,-2.731 263.466,-1.331 266.15,1.469C268.833,4.269 270.175,8.952 270.175,15.519C270.175,22.086 268.825,26.769 266.125,29.569C263.425,32.369 260.091,33.769 256.125,33.769C254.891,33.769 253.525,33.652 252.025,33.419C249.925,33.186 248.358,33.052 247.325,33.019L244.375,33.019ZM252.375,32.369C253.608,32.636 254.675,32.769 255.575,32.769C260.808,32.769 263.425,27.019 263.425,15.519C263.425,9.386 262.733,4.977 261.35,2.294C259.966,-0.389 258.025,-1.731 255.525,-1.731C254.625,-1.731 253.575,-1.598 252.375,-1.331L252.375,32.369Z" style="fill:rgb(255,136,136);"/>
            </g>
        </g>
    </g>
</svg>
