<?xml version="1.0" encoding="UTF-8" standalone="no"?><!DOCTYPE svg PUBLIC "-//W3C//DTD SVG 1.1//EN" "http://www.w3.org/Graphics/SVG/1.1/DTD/svg11.dtd"><svg width="100%" height="100%" viewBox="0 0 405 155" version="1.1" xmlns="http://www.w3.org/2000/svg" xmlns:xlink="http://www.w3.org/1999/xlink" xml:space="preserve" xmlns:serif="http://www.serif.com/" style="fill-rule:evenodd;clip-rule:evenodd;stroke-linejoin:round;stroke-miterlimit:2;"><g><rect id="ArtBoard3" x="0" y="-0" width="403.542" height="152.083" style="fill:none;"/><g><path d="M16.784,46.047l85.285,-8.004l-4.708,30.036l-46.409,4.356l-2.018,12.565l38.472,-3.611l-4.035,25.399l-38.338,3.598l-4.708,30.305l-38.876,3.649l15.335,-98.293Z" style="fill-rule:nonzero;"/><path d="M110.409,37.261l83.94,-7.878l-4.171,26.622l-46.408,4.356l-1.749,10.522l41.163,-3.863l-3.632,22.67l-41.029,3.851l-1.883,11.88l47.889,-4.495l-4.17,26.623l-85.285,8.004l15.335,-98.292Z" style="fill-rule:nonzero;"/><path d="M204.303,28.448l83.939,-7.877l-4.17,26.622l-46.409,4.356l-1.748,10.522l41.162,-3.864l-3.632,22.671l-41.028,3.851l-1.883,11.88l47.888,-4.495l-4.17,26.623l-85.284,8.004l15.335,-98.293Z" style="fill-rule:nonzero;"/><path d="M298.197,19.636l52.865,-4.961c16.591,-1.557 29.348,0.698 38.271,6.766c8.923,6.068 13.384,15.603 13.384,28.607c0,18.205 -5.56,32.716 -16.68,43.535c-11.12,10.819 -27.083,17.204 -47.888,19.157l-55.287,5.189l15.335,-98.293Zm40.893,65.439c8.071,-0.757 14.282,-3.537 18.631,-8.34c4.349,-4.802 6.524,-11.194 6.524,-19.176c0,-5.38 -1.592,-9.334 -4.775,-11.86c-3.184,-2.526 -7.78,-3.507 -13.788,-2.943l-14.394,1.351l-6.591,42.319l14.393,-1.351Z" style="fill-rule:nonzero;"/></g></g></svg>