<?xml version="1.0" encoding="UTF-8" standalone="no"?>
<!DOCTYPE svg PUBLIC "-//W3C//DTD SVG 1.1//EN" "http://www.w3.org/Graphics/SVG/1.1/DTD/svg11.dtd">
<svg width="100%" height="100%" viewBox="0 0 6929 1035" version="1.1" xmlns="http://www.w3.org/2000/svg" xmlns:xlink="http://www.w3.org/1999/xlink" xml:space="preserve" xmlns:serif="http://www.serif.com/" style="fill-rule:evenodd;clip-rule:evenodd;stroke-linejoin:round;stroke-miterlimit:2;">
    <g transform="matrix(0.980383,0,0,1,0,0)">
        <rect id="ArtBoard1" x="0" y="0" width="7067" height="1035" style="fill:none;"/>
        <g>
            <clipPath id="_clip1">
                <rect x="0" y="0" width="7067" height="1035"/>
            </clipPath>
            <g clip-path="url(#_clip1)">
                <g transform="matrix(1.02001,0,0,1,0,0)">
                    <rect x="-0" y="0" width="7066.93" height="1034.07" style="fill:none;"/>
                </g>
                <g transform="matrix(1.02001,0,0,1,-55.1949,-304.466)">
                    <g>
                        <clipPath id="_clip2">
                            <rect x="54.112" y="304.466" width="7066.93" height="1034.07"/>
                        </clipPath>
                        <g clip-path="url(#_clip2)">
                            <g transform="matrix(1,0,0,1,54.1122,304.466)">
                                <path d="M1476.45,534.162L1761.82,1034.53L1191.08,1034.53L1476.45,534.162ZM285.485,534.162L570.859,1034.53L0.112,1034.53L285.485,534.162ZM1174.57,0.465L1459.94,500.833L889.195,500.833L1174.57,0.465ZM587.119,0.465L872.493,500.833L301.746,500.833L587.119,0.465ZM1174.62,1021.98L889.242,521.613L1459.99,521.613L1174.62,1021.98ZM587.318,1021.98L301.945,521.613L872.691,521.613L587.318,1021.98ZM2067.39,819.156L2170.37,265.318L2292.33,265.318L2282.33,317.302C2330.32,270.316 2373.31,252.321 2438.29,252.321C2515.26,252.321 2558.25,277.314 2585.24,338.296C2641.23,278.314 2700.21,252.321 2778.19,252.321C2865.16,252.321 2929.14,286.311 2953.14,345.294C2961.14,366.288 2965.13,392.281 2965.13,422.272C2965.13,445.265 2962.13,471.258 2957.14,499.25L2898.15,819.156L2765.19,819.156L2821.18,515.245C2825.17,492.252 2828.17,473.257 2828.17,457.262C2828.17,434.268 2824.18,418.273 2815.18,406.277C2801.18,385.283 2775.19,374.286 2743.2,374.286C2700.21,374.286 2663.22,394.28 2638.23,430.27C2621.23,455.262 2611.24,486.253 2600.24,546.236L2549.25,819.156L2416.29,819.156L2472.28,515.245C2476.28,492.252 2479.28,473.257 2479.28,457.262C2479.28,435.268 2475.28,419.273 2467.28,407.276C2453.28,386.282 2425.29,374.286 2391.3,374.286C2344.31,374.286 2307.33,395.28 2284.33,434.268C2271.34,456.262 2261.34,493.251 2251.34,546.236L2200.36,819.156L2067.39,819.156ZM3665.93,265.318L3562.96,819.156L3440.99,819.156L3453.99,747.177C3390.01,808.16 3333.03,832.153 3255.05,832.153C3114.09,832.153 3023.12,740.179 3023.12,605.219C3023.12,585.225 3025.12,565.23 3029.12,544.236C3060.11,375.286 3201.07,252.321 3365.02,252.321C3444.99,252.321 3494.98,278.314 3529.97,339.296L3543.97,265.318L3665.93,265.318ZM3354.02,374.286C3261.05,374.286 3181.07,447.265 3162.08,547.236C3160.08,559.232 3159.08,571.229 3159.08,582.225C3159.08,659.203 3211.06,710.188 3296.04,710.188C3392.01,710.188 3469.99,643.208 3487.98,544.236C3489.98,531.24 3491.98,519.244 3491.98,507.247C3491.98,427.27 3438,374.286 3354.02,374.286ZM3670.93,819.156L3807.89,80.371L3940.85,80.371L3857.87,526.242L4083.81,265.318L4242.76,265.318L3993.83,536.239L4171.78,819.156L3992.84,819.156L3851.88,560.232L3803.89,819.156L3670.93,819.156ZM4774.61,601.22L4345.73,601.22C4349.73,668.2 4399.72,710.188 4478.69,710.188C4533.68,710.188 4569.67,695.193 4610.65,655.204L4755.61,655.204C4741.62,683.196 4723.62,706.189 4697.63,732.182C4626.65,800.162 4550.67,832.153 4459.7,832.153C4309.74,832.153 4207.77,733.181 4207.77,597.221C4207.77,580.226 4209.77,562.231 4212.77,544.236C4242.76,381.284 4395.72,252.321 4558.67,252.321C4702.63,252.321 4795.6,348.293 4795.6,487.253C4795.6,507.247 4793.6,528.241 4789.6,550.235C4785.6,570.229 4782.61,582.225 4774.61,601.22ZM4363.73,484.254L4670.64,484.254C4666.64,413.275 4619.65,374.286 4537.68,374.286C4458.7,374.286 4397.72,412.275 4363.73,484.254ZM4787.6,1004.1L4924.56,265.318L5046.53,265.318L5034.53,330.299C5086.52,279.313 5155.5,252.321 5230.48,252.321C5370.43,252.321 5459.41,344.295 5459.41,478.256C5459.41,498.25 5457.41,519.244 5453.41,540.238C5422.42,708.189 5282.46,832.153 5122.51,832.153C5054.53,832.153 5007.54,812.158 4964.55,767.172L4920.57,1004.1L4787.6,1004.1ZM5187.49,374.286C5097.51,374.286 5015.54,447.265 4997.54,544.236C4995.54,555.233 4994.54,566.23 4994.54,577.227C4994.54,654.204 5048.53,710.188 5129.5,710.188C5218.48,710.188 5301.45,637.209 5318.45,543.237C5320.45,531.24 5322.45,518.244 5322.45,507.247C5322.45,429.27 5269.46,374.286 5187.49,374.286ZM6145.21,265.318L6042.24,819.156L5920.27,819.156L5933.27,747.177C5869.29,808.16 5812.31,832.153 5734.33,832.153C5593.37,832.153 5502.4,740.179 5502.4,605.219C5502.4,585.225 5504.4,565.23 5508.39,544.236C5539.39,375.286 5680.34,252.321 5844.3,252.321C5924.27,252.321 5974.26,278.314 6009.25,339.296L6023.24,265.318L6145.21,265.318ZM5833.3,374.286C5740.33,374.286 5660.35,447.265 5641.36,547.236C5639.36,559.232 5638.36,571.229 5638.36,582.225C5638.36,659.203 5690.34,710.188 5775.32,710.188C5871.29,710.188 5949.27,643.208 5967.26,544.236C5969.26,531.24 5971.26,519.244 5971.26,507.247C5971.26,427.27 5917.28,374.286 5833.3,374.286ZM6844.01,80.371L6707.05,819.156L6585.08,819.156L6598.08,747.177C6533.1,807.16 6475.11,832.153 6400.13,832.153C6262.17,832.153 6170.2,735.181 6170.2,600.22C6170.2,581.226 6172.2,561.231 6176.2,541.237C6207.19,375.286 6352.15,245.323 6507.1,245.323C6577.08,245.323 6637.07,271.316 6668.06,314.303L6711.04,80.371L6844.01,80.371ZM6502.11,367.288C6412.13,367.288 6328.15,441.266 6310.16,537.238C6308.16,549.235 6307.16,560.232 6307.16,571.229C6307.16,651.205 6362.15,710.188 6443.12,710.188C6533.1,710.188 6618.07,635.21 6636.07,540.238C6638.07,527.241 6639.07,515.245 6639.07,503.248C6639.07,422.272 6586.08,367.288 6502.11,367.288Z" style="fill:white;"/>
                            </g>
                        </g>
                    </g>
                </g>
            </g>
        </g>
    </g>
</svg>
