<?xml version="1.0" encoding="UTF-8" standalone="no"?><!DOCTYPE svg PUBLIC "-//W3C//DTD SVG 1.1//EN" "http://www.w3.org/Graphics/SVG/1.1/DTD/svg11.dtd"><svg width="100%" height="100%" viewBox="0 0 49 49" version="1.1" xmlns="http://www.w3.org/2000/svg" xmlns:xlink="http://www.w3.org/1999/xlink" xml:space="preserve" xmlns:serif="http://www.serif.com/" style="fill-rule:evenodd;clip-rule:evenodd;stroke-linejoin:round;stroke-miterlimit:2;"><rect id="icon_search_full_word" x="0.203" y="0.023" width="48" height="48" style="fill:none;"/><path d="M15.47,17.963c2.016,0 3.559,0.435 4.631,1.305c1.072,0.871 1.608,2.203 1.608,3.999l-0,10.003l-2.858,0l-0.797,-2.033l-0.11,-0c-0.422,0.531 -0.857,0.971 -1.306,1.319c-0.448,0.348 -0.961,0.6 -1.539,0.755c-0.577,0.156 -1.287,0.234 -2.129,0.234c-0.88,-0 -1.672,-0.169 -2.378,-0.508c-0.705,-0.339 -1.259,-0.862 -1.662,-1.567c-0.403,-0.705 -0.605,-1.598 -0.605,-2.679c0,-1.594 0.559,-2.771 1.677,-3.532c1.117,-0.76 2.794,-1.177 5.029,-1.25l2.61,-0.083l0,-0.659c0,-0.788 -0.206,-1.365 -0.618,-1.731c-0.412,-0.367 -0.985,-0.55 -1.717,-0.55c-0.733,-0 -1.448,0.105 -2.144,0.316c-0.696,0.211 -1.392,0.472 -2.089,0.783l-1.346,-2.775c0.806,-0.422 1.699,-0.752 2.679,-0.99c0.98,-0.238 2.002,-0.357 3.064,-0.357Zm0.578,8.409c-1.32,0.037 -2.236,0.275 -2.749,0.715c-0.513,0.44 -0.769,1.017 -0.769,1.731c-0,0.623 0.183,1.067 0.55,1.333c0.366,0.266 0.842,0.399 1.429,0.399c0.879,-0 1.621,-0.262 2.226,-0.784c0.604,-0.522 0.906,-1.259 0.906,-2.212l0,-1.237l-1.593,0.055Zm13.96,-9.124c0,0.568 -0.018,1.127 -0.055,1.677c-0.036,0.549 -0.073,0.98 -0.11,1.291l0.165,0c0.403,-0.622 0.944,-1.149 1.622,-1.58c0.677,-0.43 1.557,-0.646 2.638,-0.646c1.685,0 3.05,0.655 4.094,1.965c1.045,1.31 1.567,3.239 1.567,5.785c-0,1.704 -0.243,3.138 -0.728,4.301c-0.486,1.163 -1.159,2.038 -2.02,2.625c-0.861,0.586 -1.869,0.879 -3.023,0.879c-1.099,-0 -1.965,-0.197 -2.597,-0.591c-0.632,-0.394 -1.15,-0.838 -1.553,-1.333l-0.275,0l-0.687,1.649l-3.133,0l0,-20.886l4.095,0l0,4.864Zm2.941,4.013c-0.715,-0 -1.283,0.146 -1.704,0.439c-0.422,0.294 -0.728,0.738 -0.921,1.333c-0.192,0.596 -0.298,1.342 -0.316,2.24l0,0.44c0,1.447 0.215,2.56 0.646,3.339c0.43,0.778 1.214,1.168 2.35,1.168c0.842,-0 1.511,-0.39 2.006,-1.168c0.494,-0.779 0.742,-1.901 0.742,-3.367c-0,-1.465 -0.252,-2.569 -0.756,-3.311c-0.504,-0.742 -1.186,-1.113 -2.047,-1.113Zm9.815,7.169c0,-0.655 0.532,-1.186 1.186,-1.186c0.655,-0 1.186,0.531 1.186,1.186l0,8.688c0,0.655 -0.531,1.186 -1.186,1.186l-39.448,-0c-0.655,-0 -1.186,-0.531 -1.186,-1.186l0,-8.688c0,-0.655 0.532,-1.186 1.186,-1.186c0.655,-0 1.186,0.531 1.186,1.186l0,7.502l37.076,-0l0,-7.502Z"/></svg>