<?xml version="1.0" encoding="UTF-8" standalone="no"?><!DOCTYPE svg PUBLIC "-//W3C//DTD SVG 1.1//EN" "http://www.w3.org/Graphics/SVG/1.1/DTD/svg11.dtd"><svg width="100%" height="100%" viewBox="0 0 49 49" version="1.1" xmlns="http://www.w3.org/2000/svg" xmlns:xlink="http://www.w3.org/1999/xlink" xml:space="preserve" xmlns:serif="http://www.serif.com/" style="fill-rule:evenodd;clip-rule:evenodd;stroke-linejoin:round;stroke-miterlimit:2;"><rect id="icon_filetree_file_create" x="0.207" y="0.164" width="48" height="48" style="fill:none;"/><path d="M12.078,11.761c0,-2.23 1.813,-4.043 4.043,-4.043l10.107,-0l0,8.085c0,1.118 0.904,2.022 2.022,2.022l8.085,-0l0,18.193c0,2.23 -1.813,4.042 -4.042,4.042l-16.172,0c-2.23,0 -4.043,-1.812 -4.043,-4.042l0,-24.257Zm14.063,14.046l0,-6.773l-3.814,-0l-0,6.773l-6.738,0l-0,3.815l6.738,-0l-0,6.702l3.814,-0l0,-6.702l6.738,-0l-0,-3.815l-6.738,0Zm10.194,-10.004l-8.085,0l-0,-8.085l8.085,8.085Z"/></svg>