<?xml version="1.0" encoding="UTF-8" standalone="no"?><!DOCTYPE svg PUBLIC "-//W3C//DTD SVG 1.1//EN" "http://www.w3.org/Graphics/SVG/1.1/DTD/svg11.dtd"><svg width="100%" height="100%" viewBox="0 0 163 163" version="1.1" xmlns="http://www.w3.org/2000/svg" xmlns:xlink="http://www.w3.org/1999/xlink" xml:space="preserve" xmlns:serif="http://www.serif.com/" style="fill-rule:evenodd;clip-rule:evenodd;stroke-linejoin:round;stroke-miterlimit:2;"><path d="M134.568,43.934c4.426,-4.425 4.426,-11.612 0,-16.038c-4.425,-4.425 -11.612,-4.425 -16.038,0l-37.28,37.316l-37.316,-37.28c-4.425,-4.426 -11.612,-4.426 -16.038,-0c-4.425,4.425 -4.425,11.612 0,16.038l37.316,37.28l-37.28,37.316c-4.426,4.425 -4.426,11.612 -0,16.038c4.425,4.425 11.612,4.425 16.038,-0l37.28,-37.316l37.316,37.28c4.425,4.426 11.612,4.426 16.038,0c4.425,-4.425 4.425,-11.612 -0,-16.038l-37.316,-37.28l37.28,-37.316Z" style="fill-rule:nonzero;"/></svg>