<?xml version="1.0" encoding="UTF-8" standalone="no"?><!DOCTYPE svg PUBLIC "-//W3C//DTD SVG 1.1//EN" "http://www.w3.org/Graphics/SVG/1.1/DTD/svg11.dtd"><svg width="100%" height="100%" viewBox="0 0 48 49" version="1.1" xmlns="http://www.w3.org/2000/svg" xmlns:xlink="http://www.w3.org/1999/xlink" xml:space="preserve" xmlns:serif="http://www.serif.com/" style="fill-rule:evenodd;clip-rule:evenodd;stroke-linejoin:round;stroke-miterlimit:2;"><rect id="icon_search_case_sensitive" x="0" y="0.023" width="48" height="48" style="fill:none;"/><path d="M22.016,33.27l-1.429,-4.672l-7.145,0l-1.43,4.672l-4.479,0l6.925,-19.704l5.084,-0l6.953,19.704l-4.479,0Zm-3.848,-12.724c-0.091,-0.311 -0.21,-0.705 -0.357,-1.181c-0.147,-0.477 -0.293,-0.962 -0.44,-1.457c-0.146,-0.495 -0.265,-0.925 -0.357,-1.292c-0.092,0.367 -0.215,0.82 -0.371,1.361c-0.156,0.54 -0.302,1.053 -0.44,1.539c-0.137,0.485 -0.242,0.829 -0.316,1.03l-1.401,4.562l5.111,0l-1.429,-4.562Zm16.627,-2.583c2.015,0 3.558,0.435 4.63,1.305c1.072,0.871 1.608,2.203 1.608,3.999l-0,10.003l-2.858,0l-0.797,-2.033l-0.11,-0c-0.421,0.531 -0.857,0.971 -1.305,1.319c-0.449,0.348 -0.962,0.6 -1.539,0.755c-0.578,0.156 -1.287,0.234 -2.13,0.234c-0.88,-0 -1.672,-0.169 -2.377,-0.508c-0.706,-0.339 -1.26,-0.862 -1.663,-1.567c-0.403,-0.705 -0.605,-1.598 -0.605,-2.679c0,-1.594 0.559,-2.771 1.677,-3.532c1.117,-0.76 2.794,-1.177 5.029,-1.25l2.611,-0.083l-0,-0.659c-0,-0.788 -0.206,-1.365 -0.619,-1.731c-0.412,-0.367 -0.984,-0.55 -1.717,-0.55c-0.733,-0 -1.448,0.105 -2.144,0.316c-0.696,0.211 -1.392,0.472 -2.088,0.783l-1.347,-2.775c0.806,-0.422 1.699,-0.752 2.679,-0.99c0.981,-0.238 2.002,-0.357 3.065,-0.357Zm0.577,8.409c-1.319,0.037 -2.235,0.275 -2.748,0.715c-0.513,0.44 -0.77,1.017 -0.77,1.731c0,0.623 0.183,1.067 0.55,1.333c0.366,0.266 0.842,0.399 1.429,0.399c0.879,-0 1.621,-0.262 2.226,-0.784c0.604,-0.522 0.907,-1.259 0.907,-2.212l-0,-1.237l-1.594,0.055Z"/></svg>