<?xml version="1.0" encoding="UTF-8" standalone="no"?><!DOCTYPE svg PUBLIC "-//W3C//DTD SVG 1.1//EN" "http://www.w3.org/Graphics/SVG/1.1/DTD/svg11.dtd"><svg width="100%" height="100%" viewBox="0 0 163 163" version="1.1" xmlns="http://www.w3.org/2000/svg" xmlns:xlink="http://www.w3.org/1999/xlink" xml:space="preserve" xmlns:serif="http://www.serif.com/" style="fill-rule:evenodd;clip-rule:evenodd;stroke-linejoin:round;stroke-miterlimit:2;"><path d="M81.25,12.5c-37.946,0 -68.75,30.804 -68.75,68.75c0,37.946 30.804,68.75 68.75,68.75c37.946,0 68.75,-30.804 68.75,-68.75c0,-37.946 -30.804,-68.75 -68.75,-68.75Zm37.5,59.375c3.321,0 6.25,2.929 6.25,6.25l0,6.25c0,3.517 -2.929,6.25 -6.25,6.25l-28.125,0l0,28.125c0,3.517 -2.929,6.25 -6.25,6.25l-6.25,0c-3.517,0 -6.25,-2.733 -6.25,-6.25l0,-28.125l-28.125,0c-3.517,0 -6.25,-2.733 -6.25,-6.25l0,-6.25c0,-3.321 2.733,-6.25 6.25,-6.25l28.125,0l0,-28.125c0,-3.321 2.733,-6.25 6.25,-6.25l6.25,0c3.321,0 6.25,2.929 6.25,6.25l0,28.125l28.125,0Z"/></svg>