<?xml version="1.0" encoding="UTF-8" standalone="no"?><!DOCTYPE svg PUBLIC "-//W3C//DTD SVG 1.1//EN" "http://www.w3.org/Graphics/SVG/1.1/DTD/svg11.dtd"><svg width="100%" height="100%" viewBox="0 0 49 49" version="1.1" xmlns="http://www.w3.org/2000/svg" xmlns:xlink="http://www.w3.org/1999/xlink" xml:space="preserve" xmlns:serif="http://www.serif.com/" style="fill-rule:evenodd;clip-rule:evenodd;stroke-linejoin:round;stroke-miterlimit:2;"><rect id="icon_designer" x="0.02" y="0.231" width="48" height="48" style="fill:none;"/><path d="M16.266,17.238l9.853,-2.788l8.298,8.298l-2.788,9.853c-0.389,1.297 -1.426,2.399 -2.722,2.788l-18.087,6.029l-0.972,-0.908l9.724,-9.724c0.389,0.195 0.843,0.26 1.361,0.26c1.686,-0 3.112,-1.362 3.112,-3.112c-0,-1.686 -1.426,-3.112 -3.112,-3.112c-1.75,0 -3.111,1.426 -3.111,3.112c-0,0.519 0.064,0.972 0.259,1.361l-9.724,9.724l-0.908,-0.972l6.029,-18.087c0.389,-1.296 1.491,-2.333 2.788,-2.722Zm23.402,-4.149c1.231,1.167 1.231,3.176 -0,4.408l-3.631,3.63l-8.297,-8.297l3.63,-3.631c1.232,-1.231 3.241,-1.231 4.408,0l3.89,3.89Z"/></svg>