<?xml version="1.0" encoding="UTF-8" standalone="no"?><!DOCTYPE svg PUBLIC "-//W3C//DTD SVG 1.1//EN" "http://www.w3.org/Graphics/SVG/1.1/DTD/svg11.dtd"><svg width="100%" height="100%" viewBox="0 0 49 49" version="1.1" xmlns="http://www.w3.org/2000/svg" xmlns:xlink="http://www.w3.org/1999/xlink" xml:space="preserve" xmlns:serif="http://www.serif.com/" style="fill-rule:evenodd;clip-rule:evenodd;stroke-linejoin:round;stroke-miterlimit:2;"><rect id="icon_tab_app" x="0.016" y="0.218" width="48" height="48" style="fill:none;"/><path d="M40.044,7.711c0.796,-0 1.559,0.316 2.121,0.878c0.563,0.562 0.879,1.325 0.879,2.121l-0,6.156c-0.001,0.712 -0.578,1.289 -1.29,1.289l-35.475,0c-0.712,0 -1.29,-0.577 -1.29,-1.289l0,-6.156c0,-0.796 0.316,-1.559 0.879,-2.121c0.562,-0.562 1.325,-0.878 2.12,-0.878l32.056,-0Zm-29.9,2.257c-1.569,0 -2.843,1.274 -2.843,2.844c-0,1.569 1.274,2.844 2.843,2.844c1.57,-0 2.844,-1.275 2.844,-2.844c0,-1.57 -1.274,-2.844 -2.844,-2.844Zm7.565,0c-1.57,0 -2.844,1.274 -2.844,2.844c0,1.569 1.274,2.844 2.844,2.844c1.57,-0 2.844,-1.275 2.844,-2.844c-0,-1.57 -1.274,-2.844 -2.844,-2.844Zm20.321,0l-12.568,0c-1.57,0 -2.843,1.273 -2.843,2.844l-0,0c-0,1.571 1.273,2.844 2.843,2.844l12.568,-0c1.57,-0 2.843,-1.273 2.843,-2.844l0,-0c0,-1.571 -1.273,-2.844 -2.843,-2.844Zm3.724,10.51c0.712,-0 1.29,0.577 1.29,1.289l-0,17.117c-0,0.796 -0.316,1.558 -0.879,2.121c-0.562,0.562 -1.325,0.878 -2.121,0.878l-32.056,0c-0.795,0 -1.558,-0.316 -2.12,-0.878c-0.563,-0.563 -0.879,-1.325 -0.879,-2.121l0,-17.117c0,-0.712 0.578,-1.289 1.29,-1.289l35.475,-0Z"/></svg>