<?xml version="1.0" encoding="UTF-8" standalone="no"?><!DOCTYPE svg PUBLIC "-//W3C//DTD SVG 1.1//EN" "http://www.w3.org/Graphics/SVG/1.1/DTD/svg11.dtd"><svg width="100%" height="100%" viewBox="0 0 49 49" version="1.1" xmlns="http://www.w3.org/2000/svg" xmlns:xlink="http://www.w3.org/1999/xlink" xml:space="preserve" xmlns:serif="http://www.serif.com/" style="fill-rule:evenodd;clip-rule:evenodd;stroke-linejoin:round;stroke-miterlimit:2;"><rect id="icon_editor" x="0.05" y="-0.249" width="48" height="48" style="fill:none;"/><path d="M32.512,10.298c0,0.397 -0.396,0.794 -0.859,0.794c-1.785,-0.067 -5.487,0.198 -5.487,3.173l-0,7.338l2.38,-0c0.396,-0 0.793,0.396 0.793,0.793l-0,2.644c-0,0.463 -0.397,0.794 -0.793,0.794l-2.38,-0l-0,7.404c-0,2.975 3.768,3.239 5.487,3.239c0.463,0 0.859,0.331 0.859,0.794l0,2.578c0,0.463 -0.396,0.793 -0.793,0.793c-2.314,0.066 -5.223,0 -7.669,-2.446c-2.578,2.446 -5.553,2.512 -7.734,2.446c-0.397,0 -0.728,-0.33 -0.728,-0.793l0,-2.645c0,-0.396 0.331,-0.793 0.794,-0.793c1.785,0.066 5.553,-0.198 5.553,-3.173l-0,-7.404l-2.38,-0c-0.463,-0 -0.793,-0.331 -0.793,-0.794l-0,-2.644c-0,-0.397 0.33,-0.793 0.793,-0.793l2.38,-0l-0,-7.338c-0,-2.975 -3.834,-3.24 -5.553,-3.24c-0.463,0 -0.794,-0.33 -0.794,-0.793l0,-2.578c0,-0.463 0.331,-0.793 0.728,-0.793c2.313,-0.067 5.222,-0 7.734,2.446c2.512,-2.446 5.487,-2.513 7.669,-2.446c0.397,-0 0.793,0.33 0.793,0.793l0,2.644Z" style="fill-rule:nonzero;"/></svg>