<?xml version="1.0" encoding="UTF-8" standalone="no"?><!DOCTYPE svg PUBLIC "-//W3C//DTD SVG 1.1//EN" "http://www.w3.org/Graphics/SVG/1.1/DTD/svg11.dtd"><svg width="100%" height="100%" viewBox="0 0 163 163" version="1.1" xmlns="http://www.w3.org/2000/svg" xmlns:xlink="http://www.w3.org/1999/xlink" xml:space="preserve" xmlns:serif="http://www.serif.com/" style="fill-rule:evenodd;clip-rule:evenodd;stroke-linejoin:round;stroke-miterlimit:2;"><path d="M77.446,20.393l29.502,0c3.019,0 5.919,1.212 8.059,3.352l16.141,16.141c2.139,2.14 3.352,5.04 3.352,8.059l-0,52.323c-0,6.299 -5.111,11.41 -11.411,11.41l-45.643,0c-6.299,0 -11.41,-5.111 -11.41,-11.41l-0,-68.464c-0,-6.3 5.111,-11.411 11.41,-11.411Zm-38.035,30.429l19.018,-0l-0,15.214l-15.215,-0l0,60.857l45.643,-0l0,-7.607l15.214,-0l0,11.41c0,6.3 -5.111,11.411 -11.41,11.411l-53.25,-0c-6.3,-0 -11.411,-5.111 -11.411,-11.411l0,-68.464c0,-6.299 5.111,-11.41 11.411,-11.41Z" style="fill-rule:nonzero;"/></svg>