<?xml version="1.0" encoding="UTF-8" standalone="no"?><!DOCTYPE svg PUBLIC "-//W3C//DTD SVG 1.1//EN" "http://www.w3.org/Graphics/SVG/1.1/DTD/svg11.dtd"><svg width="100%" height="100%" viewBox="0 0 49 49" version="1.1" xmlns="http://www.w3.org/2000/svg" xmlns:xlink="http://www.w3.org/1999/xlink" xml:space="preserve" xmlns:serif="http://www.serif.com/" style="fill-rule:evenodd;clip-rule:evenodd;stroke-linejoin:round;stroke-miterlimit:2;"><rect id="icon_profiler_clear" x="0.016" y="0.015" width="48" height="48" style="fill:none;"/><path d="M42.775,10.458l0.007,0.007l-12.927,12.927l2.336,2.336c0.283,0.283 0.444,0.673 0.444,1.077c0,0.842 -0.68,1.522 -1.521,1.522l-1.96,-0l-7.291,-7.292l-0,-1.959c-0,-0.842 0.68,-1.522 1.521,-1.522c0.404,0 0.795,0.162 1.078,0.445l2.336,2.336l12.927,-12.927c0.841,-0.842 2.208,-0.842 3.05,0c0.841,0.842 0.841,2.208 -0,3.05Zm-15.183,20.118c0.243,2.874 -0.787,5.736 -2.848,7.796c-1.851,1.845 -4.349,2.882 -6.961,2.882l-11.668,-0c-0.822,-0 -1.488,-0.667 -1.488,-1.488c-0,-0.424 0.182,-0.828 0.491,-1.111l8.511,-7.649c0.276,-0.255 -0.027,-0.7 -0.364,-0.531l-3.44,1.716c-0.411,0.202 -0.889,-0.094 -0.889,-0.552c-0,-2.12 0.841,-4.154 2.343,-5.655l0.538,-0.539c2.061,-2.06 4.922,-3.097 7.797,-2.848l7.978,7.979Z"/></svg>