<?xml version="1.0" encoding="UTF-8" standalone="no"?><!DOCTYPE svg PUBLIC "-//W3C//DTD SVG 1.1//EN" "http://www.w3.org/Graphics/SVG/1.1/DTD/svg11.dtd"><svg width="100%" height="100%" viewBox="0 0 855 855" version="1.1" xmlns="http://www.w3.org/2000/svg" xmlns:xlink="http://www.w3.org/1999/xlink" xml:space="preserve" xmlns:serif="http://www.serif.com/" style="fill-rule:evenodd;clip-rule:evenodd;stroke-linejoin:round;stroke-miterlimit:2;"><rect id="icon_run" x="3.438" y="4.013" width="833.333" height="833.333" style="fill:none;"/><path d="M572.178,182.482c6.827,-15.852 1.736,-34.365 -12.265,-44.547c-14,-10.182 -33.092,-9.256 -46.166,2.083l-296.206,259.18c-11.571,10.182 -15.736,26.497 -10.298,40.844c5.438,14.348 19.323,24.067 34.712,24.067l129.011,0l-88.977,207.576c-6.827,15.851 -1.736,34.364 12.264,44.546c14.001,10.182 33.092,9.257 46.167,-2.082l296.206,-259.181c11.571,-10.182 15.736,-26.496 10.298,-40.844c-5.438,-14.347 -19.207,-23.951 -34.712,-23.951l-129.011,0l88.977,-207.691Z" style="fill-rule:nonzero;"/></svg>