<?xml version="1.0" encoding="UTF-8" standalone="no"?><!DOCTYPE svg PUBLIC "-//W3C//DTD SVG 1.1//EN" "http://www.w3.org/Graphics/SVG/1.1/DTD/svg11.dtd"><svg width="100%" height="100%" viewBox="0 0 49 49" version="1.1" xmlns="http://www.w3.org/2000/svg" xmlns:xlink="http://www.w3.org/1999/xlink" xml:space="preserve" xmlns:serif="http://www.serif.com/" style="fill-rule:evenodd;clip-rule:evenodd;stroke-linejoin:round;stroke-miterlimit:2;"><rect id="icon_filetree_folder_create" x="0.016" y="0.17" width="48" height="48" style="fill:none;"/><path d="M11.888,38.044c-2.23,0 -4.043,-1.813 -4.043,-4.043l-0,-20.214c-0,-2.23 1.813,-4.043 4.043,-4.043l8.086,0c1.269,0 2.469,0.6 3.234,1.617l1.213,1.618c0.379,0.511 0.979,0.808 1.617,0.808l10.107,0c2.23,0 4.043,1.813 4.043,4.043l-0,16.171c-0,2.23 -1.813,4.043 -4.043,4.043l-24.257,0Zm14.036,-13.917l-0,-6.773l-3.815,-0l0,6.773l-6.738,0l0,3.815l6.738,-0l0,6.702l3.815,-0l-0,-6.702l6.737,-0l0,-3.815l-6.737,0Z"/></svg>